<mxfile host="app.diagrams.net" modified="2023-01-31T15:28:02.870Z" agent="5.0 (Windows NT 10.0; Win64; x64) AppleWebKit/537.36 (KHTML, like Gecko) Chrome/109.0.0.0 Safari/537.36" etag="LDfzWoOTvruGY_aIMCvE" version="20.8.1" type="github" pages="2">
  <diagram id="C5RBs43oDa-KdzZeNtuy" name="MAIN">
    <mxGraphModel dx="2620" dy="1105" grid="1" gridSize="10" guides="1" tooltips="1" connect="1" arrows="1" fold="1" page="1" pageScale="1" pageWidth="827" pageHeight="1169" background="#114B5F" math="0" shadow="0">
      <root>
        <mxCell id="WIyWlLk6GJQsqaUBKTNV-0" />
        <mxCell id="WIyWlLk6GJQsqaUBKTNV-1" parent="WIyWlLk6GJQsqaUBKTNV-0" />
        <mxCell id="3y8yjmwaF7QzrDSz1sdv-18" style="edgeStyle=orthogonalEdgeStyle;rounded=0;orthogonalLoop=1;jettySize=auto;html=1;entryX=0;entryY=0.5;entryDx=0;entryDy=0;strokeColor=#028090;fontSize=12;fontColor=#E4FDE1;fillColor=#F45B69;labelBackgroundColor=#114B5F;" parent="WIyWlLk6GJQsqaUBKTNV-1" source="3y8yjmwaF7QzrDSz1sdv-8" target="3y8yjmwaF7QzrDSz1sdv-16" edge="1">
          <mxGeometry relative="1" as="geometry">
            <Array as="points">
              <mxPoint x="-530" y="565" />
              <mxPoint x="-530" y="667" />
            </Array>
          </mxGeometry>
        </mxCell>
        <mxCell id="3y8yjmwaF7QzrDSz1sdv-8" value="Models\&lt;font color=&quot;#ffff33&quot;&gt;ModelGetter.cs&lt;/font&gt;" style="swimlane;whiteSpace=wrap;html=1;strokeColor=#028090;fontColor=#E4FDE1;fillColor=#F45B69;strokeWidth=2;" parent="WIyWlLk6GJQsqaUBKTNV-1" vertex="1">
          <mxGeometry x="-800" y="410" width="234" height="310" as="geometry" />
        </mxCell>
        <mxCell id="3y8yjmwaF7QzrDSz1sdv-11" value="&lt;h1 style=&quot;line-height: 90%; font-size: 11px;&quot;&gt;&lt;span style=&quot;font-weight: 400; text-align: center;&quot;&gt;Основной класс\стартовая точка&lt;/span&gt;&lt;br&gt;&lt;/h1&gt;&lt;p style=&quot;line-height: 90%;&quot;&gt;Инициализация процессов, которые&amp;nbsp; должны либо происходить без остановки на протяжении работы программы, либо запускаться один раз в начале.&lt;/p&gt;&lt;p style=&quot;line-height: 60%;&quot;&gt;- Инициализация АЦП&lt;/p&gt;&lt;p style=&quot;line-height: 60%;&quot;&gt;- Инициализация Ethernet&lt;/p&gt;&lt;p style=&quot;line-height: 60%;&quot;&gt;- Инициализация Modbus&lt;/p&gt;&lt;p style=&quot;line-height: 60%;&quot;&gt;- Инициализация калибровок&lt;/p&gt;&lt;p style=&quot;line-height: 60%;&quot;&gt;- Считывание данных (Всех)&lt;/p&gt;&lt;p style=&quot;line-height: 60%;&quot;&gt;- Инициализация камеры&lt;/p&gt;&lt;p style=&quot;line-height: 60%;&quot;&gt;- Инициализация базы&lt;/p&gt;&lt;p style=&quot;line-height: 60%;&quot;&gt;- Определение наличия кабеля&lt;/p&gt;&lt;p style=&quot;line-height: 100%;&quot;&gt;Так же выступает родительским классом для МОДЕЛЕЙ, что бы те имели доступ ко всем real time процессам&lt;/p&gt;&lt;p style=&quot;line-height: 60%;&quot;&gt;&lt;br&gt;&lt;/p&gt;" style="text;html=1;strokeColor=none;fillColor=none;align=left;verticalAlign=middle;whiteSpace=wrap;rounded=0;strokeWidth=2;fontSize=11;fontColor=#E4FDE1;" parent="3y8yjmwaF7QzrDSz1sdv-8" vertex="1">
          <mxGeometry x="12" y="25" width="210" height="300" as="geometry" />
        </mxCell>
        <mxCell id="3y8yjmwaF7QzrDSz1sdv-14" value="&lt;font style=&quot;font-size: 40px;&quot;&gt;ОБЩАЯ СХЕМА&lt;/font&gt;" style="text;html=1;strokeColor=none;fillColor=none;align=center;verticalAlign=middle;whiteSpace=wrap;rounded=0;strokeWidth=2;fontSize=11;fontColor=#E4FDE1;" parent="WIyWlLk6GJQsqaUBKTNV-1" vertex="1">
          <mxGeometry x="-230" y="20" width="450" height="30" as="geometry" />
        </mxCell>
        <mxCell id="3y8yjmwaF7QzrDSz1sdv-21" style="edgeStyle=orthogonalEdgeStyle;rounded=0;orthogonalLoop=1;jettySize=auto;html=1;entryX=0.5;entryY=1;entryDx=0;entryDy=0;strokeColor=#028090;fontSize=12;fontColor=#E4FDE1;fillColor=#F45B69;labelBackgroundColor=#114B5F;" parent="WIyWlLk6GJQsqaUBKTNV-1" source="3y8yjmwaF7QzrDSz1sdv-16" target="3y8yjmwaF7QzrDSz1sdv-20" edge="1">
          <mxGeometry relative="1" as="geometry" />
        </mxCell>
        <mxCell id="3y8yjmwaF7QzrDSz1sdv-16" value="&lt;font style=&quot;font-size: 12px;&quot;&gt;&lt;font style=&quot;font-size: 12px;&quot; color=&quot;#ffffff&quot;&gt;Models\&lt;/font&gt;&lt;a style=&quot;box-sizing: border-box; text-decoration-line: none; font-family: -apple-system, &amp;quot;system-ui&amp;quot;, &amp;quot;Segoe UI&amp;quot;, &amp;quot;Noto Sans&amp;quot;, Helvetica, Arial, sans-serif, &amp;quot;Apple Color Emoji&amp;quot;, &amp;quot;Segoe UI Emoji&amp;quot;; font-weight: 400; text-align: start;&quot; href=&quot;https://github.com/MSGequipment/MS005-PC/blob/master/MS005/MS005/Models/AlternatorAutomaticModel.cs&quot; data-turbo-frame=&quot;repo-content-turbo-frame&quot; title=&quot;AlternatorAutomaticModel.cs&quot; class=&quot;js-navigation-open Link--primary&quot;&gt;&lt;font color=&quot;#ffff33&quot;&gt;MainScreenModel.cs&lt;/font&gt;&lt;/a&gt;&lt;/font&gt;" style="swimlane;whiteSpace=wrap;html=1;strokeColor=#028090;strokeWidth=2;fontSize=12;fontColor=#E4FDE1;fillColor=#F45B69;" parent="WIyWlLk6GJQsqaUBKTNV-1" vertex="1">
          <mxGeometry x="-450" y="630" width="270" height="75" as="geometry" />
        </mxCell>
        <mxCell id="3y8yjmwaF7QzrDSz1sdv-19" value="&lt;font color=&quot;#ffffff&quot;&gt;Класс логики главной страницы программы&lt;/font&gt;" style="text;html=1;align=center;verticalAlign=middle;resizable=0;points=[];autosize=1;strokeColor=none;fillColor=none;fontSize=12;fontColor=#E4FDE1;" parent="3y8yjmwaF7QzrDSz1sdv-16" vertex="1">
          <mxGeometry y="25" width="270" height="30" as="geometry" />
        </mxCell>
        <mxCell id="3y8yjmwaF7QzrDSz1sdv-35" style="edgeStyle=orthogonalEdgeStyle;rounded=0;orthogonalLoop=1;jettySize=auto;html=1;exitX=0.75;exitY=1;exitDx=0;exitDy=0;entryX=0.778;entryY=0;entryDx=0;entryDy=0;entryPerimeter=0;strokeColor=#028090;fontColor=#E4FDE1;fillColor=#F45B69;labelBackgroundColor=#114B5F;" parent="WIyWlLk6GJQsqaUBKTNV-1" source="3y8yjmwaF7QzrDSz1sdv-20" target="3y8yjmwaF7QzrDSz1sdv-16" edge="1">
          <mxGeometry relative="1" as="geometry" />
        </mxCell>
        <mxCell id="3y8yjmwaF7QzrDSz1sdv-39" style="edgeStyle=orthogonalEdgeStyle;rounded=0;orthogonalLoop=1;jettySize=auto;html=1;strokeColor=#028090;fontColor=#E4FDE1;fillColor=#F45B69;labelBackgroundColor=#114B5F;" parent="WIyWlLk6GJQsqaUBKTNV-1" source="3y8yjmwaF7QzrDSz1sdv-20" target="3y8yjmwaF7QzrDSz1sdv-37" edge="1">
          <mxGeometry relative="1" as="geometry" />
        </mxCell>
        <mxCell id="3y8yjmwaF7QzrDSz1sdv-20" value="ViewModels\&lt;span style=&quot;box-sizing: border-box; font-family: ui-monospace, SFMono-Regular, &amp;quot;SF Mono&amp;quot;, Menlo, Consolas, &amp;quot;Liberation Mono&amp;quot;, monospace; font-weight: 400; text-align: start;&quot; class=&quot;pl-en&quot;&gt;&lt;span style=&quot;box-sizing: border-box;&quot; data-hydro-click-hmac=&quot;45081e2ad573fc3797123f1f8df50e1bceb6ab57977eba1e4fc2972629590423&quot; data-hydro-click=&quot;{&amp;quot;event_type&amp;quot;:&amp;quot;code_navigation.click_on_symbol&amp;quot;,&amp;quot;payload&amp;quot;:{&amp;quot;action&amp;quot;:&amp;quot;click_on_symbol&amp;quot;,&amp;quot;repository_id&amp;quot;:252561255,&amp;quot;ref&amp;quot;:&amp;quot;master&amp;quot;,&amp;quot;language&amp;quot;:&amp;quot;C#&amp;quot;,&amp;quot;backend&amp;quot;:&amp;quot;ALEPH_FUZZY&amp;quot;,&amp;quot;code_nav_context&amp;quot;:&amp;quot;BLOB_VIEW&amp;quot;,&amp;quot;retry_backend&amp;quot;:&amp;quot;&amp;quot;,&amp;quot;cross_repo_results_included&amp;quot;:&amp;quot;CROSS_REPO_ENABLED&amp;quot;,&amp;quot;in_repo_result_count&amp;quot;:1,&amp;quot;cross_repo_result_count&amp;quot;:0,&amp;quot;originating_url&amp;quot;:&amp;quot;https://github.com/MSGequipment/MS005-PC/find-definition?q=MainScreenViewModel&amp;amp;blob_path=MS005%2FMS005%2FView+Models%2FMainScreenViewModel.cs&amp;amp;ref=master&amp;amp;language=C%23&amp;amp;row=12&amp;amp;col=17&amp;amp;code_nav_context=BLOB_VIEW&amp;quot;,&amp;quot;user_id&amp;quot;:33692627}}&quot; class=&quot;pl-token&quot;&gt;&lt;font style=&quot;&quot; color=&quot;#ffff33&quot;&gt;MainScreenViewModel&lt;/font&gt;&lt;/span&gt;&lt;/span&gt;&lt;span style=&quot;font-family: ui-monospace, SFMono-Regular, &amp;quot;SF Mono&amp;quot;, Menlo, Consolas, &amp;quot;Liberation Mono&amp;quot;, monospace; font-weight: 400; text-align: start;&quot;&gt;&lt;font style=&quot;&quot; color=&quot;#ffff33&quot;&gt;.cs&lt;/font&gt;&lt;/span&gt;" style="swimlane;whiteSpace=wrap;html=1;labelBackgroundColor=none;strokeColor=#028090;strokeWidth=2;fontSize=12;fontColor=#E4FDE1;fillColor=#F45B69;" parent="WIyWlLk6GJQsqaUBKTNV-1" vertex="1">
          <mxGeometry x="-465" y="520" width="300" height="76" as="geometry">
            <mxRectangle x="-480" y="450" width="270" height="30" as="alternateBounds" />
          </mxGeometry>
        </mxCell>
        <mxCell id="3y8yjmwaF7QzrDSz1sdv-22" value="View Model - обмен данными с моделью и формой" style="text;html=1;align=center;verticalAlign=middle;resizable=0;points=[];autosize=1;strokeColor=none;fillColor=none;fontColor=#E4FDE1;" parent="3y8yjmwaF7QzrDSz1sdv-20" vertex="1">
          <mxGeometry x="-5" y="30" width="310" height="30" as="geometry" />
        </mxCell>
        <mxCell id="3y8yjmwaF7QzrDSz1sdv-40" style="edgeStyle=orthogonalEdgeStyle;rounded=0;orthogonalLoop=1;jettySize=auto;html=1;exitX=0.75;exitY=1;exitDx=0;exitDy=0;entryX=0.75;entryY=0;entryDx=0;entryDy=0;strokeColor=#028090;fontColor=#E4FDE1;fillColor=#F45B69;labelBackgroundColor=#114B5F;" parent="WIyWlLk6GJQsqaUBKTNV-1" source="3y8yjmwaF7QzrDSz1sdv-37" target="3y8yjmwaF7QzrDSz1sdv-20" edge="1">
          <mxGeometry relative="1" as="geometry" />
        </mxCell>
        <mxCell id="3y8yjmwaF7QzrDSz1sdv-37" value="Views\&lt;span style=&quot;box-sizing: border-box; font-family: ui-monospace, SFMono-Regular, &amp;quot;SF Mono&amp;quot;, Menlo, Consolas, &amp;quot;Liberation Mono&amp;quot;, monospace; font-weight: 400; text-align: start;&quot; class=&quot;pl-en&quot;&gt;&lt;span style=&quot;box-sizing: border-box;&quot; data-hydro-click-hmac=&quot;45081e2ad573fc3797123f1f8df50e1bceb6ab57977eba1e4fc2972629590423&quot; data-hydro-click=&quot;{&amp;quot;event_type&amp;quot;:&amp;quot;code_navigation.click_on_symbol&amp;quot;,&amp;quot;payload&amp;quot;:{&amp;quot;action&amp;quot;:&amp;quot;click_on_symbol&amp;quot;,&amp;quot;repository_id&amp;quot;:252561255,&amp;quot;ref&amp;quot;:&amp;quot;master&amp;quot;,&amp;quot;language&amp;quot;:&amp;quot;C#&amp;quot;,&amp;quot;backend&amp;quot;:&amp;quot;ALEPH_FUZZY&amp;quot;,&amp;quot;code_nav_context&amp;quot;:&amp;quot;BLOB_VIEW&amp;quot;,&amp;quot;retry_backend&amp;quot;:&amp;quot;&amp;quot;,&amp;quot;cross_repo_results_included&amp;quot;:&amp;quot;CROSS_REPO_ENABLED&amp;quot;,&amp;quot;in_repo_result_count&amp;quot;:1,&amp;quot;cross_repo_result_count&amp;quot;:0,&amp;quot;originating_url&amp;quot;:&amp;quot;https://github.com/MSGequipment/MS005-PC/find-definition?q=MainScreenViewModel&amp;amp;blob_path=MS005%2FMS005%2FView+Models%2FMainScreenViewModel.cs&amp;amp;ref=master&amp;amp;language=C%23&amp;amp;row=12&amp;amp;col=17&amp;amp;code_nav_context=BLOB_VIEW&amp;quot;,&amp;quot;user_id&amp;quot;:33692627}}&quot; class=&quot;pl-token&quot;&gt;&lt;font style=&quot;&quot; color=&quot;#ffff33&quot;&gt;MainScreenView&lt;/font&gt;&lt;/span&gt;&lt;/span&gt;&lt;span style=&quot;font-family: ui-monospace, SFMono-Regular, &amp;quot;SF Mono&amp;quot;, Menlo, Consolas, &amp;quot;Liberation Mono&amp;quot;, monospace; font-weight: 400; text-align: start;&quot;&gt;&lt;font style=&quot;&quot; color=&quot;#ffff33&quot;&gt;.xaml&lt;/font&gt;&lt;/span&gt;" style="swimlane;whiteSpace=wrap;html=1;labelBackgroundColor=none;strokeColor=#028090;strokeWidth=2;fontSize=12;fontColor=#E4FDE1;fillColor=#F45B69;" parent="WIyWlLk6GJQsqaUBKTNV-1" vertex="1">
          <mxGeometry x="-465" y="422" width="300" height="76" as="geometry">
            <mxRectangle x="-480" y="450" width="270" height="30" as="alternateBounds" />
          </mxGeometry>
        </mxCell>
        <mxCell id="3y8yjmwaF7QzrDSz1sdv-38" value="Форма основного экрана" style="text;html=1;align=center;verticalAlign=middle;resizable=0;points=[];autosize=1;strokeColor=none;fillColor=none;fontColor=#E4FDE1;" parent="3y8yjmwaF7QzrDSz1sdv-37" vertex="1">
          <mxGeometry x="65" y="30" width="170" height="30" as="geometry" />
        </mxCell>
        <mxCell id="3y8yjmwaF7QzrDSz1sdv-41" value="&lt;a style=&quot;box-sizing: border-box; background-color: rgb(22, 27, 34); font-family: -apple-system, &amp;quot;system-ui&amp;quot;, &amp;quot;Segoe UI&amp;quot;, &amp;quot;Noto Sans&amp;quot;, Helvetica, Arial, sans-serif, &amp;quot;Apple Color Emoji&amp;quot;, &amp;quot;Segoe UI Emoji&amp;quot;; text-align: start; color: var(--color-fg-default)  !important; text-decoration-line: none !important; font-weight: var(--base-text-weight-semibold, 600)  !important;&quot; href=&quot;https://github.com/MSGequipment/MS005-PC/blob/c0dc92c4f5a4eaf558f3153e84f72464c5266e1c/MS005/MS005/GPIO/GpioOutPin.cs#L72&quot; class=&quot;no-underline color-fg-default Link--onHover text-bold&quot;&gt;GPIO/GpioOutPin.cs&lt;/a&gt;" style="swimlane;whiteSpace=wrap;html=1;strokeColor=#028090;strokeWidth=2;fontSize=12;fontColor=#E4FDE1;fillColor=#F45B69;" parent="WIyWlLk6GJQsqaUBKTNV-1" vertex="1">
          <mxGeometry x="-750" y="740" width="270" height="60" as="geometry" />
        </mxCell>
        <mxCell id="3y8yjmwaF7QzrDSz1sdv-42" value="&lt;font color=&quot;#ffffff&quot;&gt;Настройка GPIO выходов&lt;/font&gt;" style="text;html=1;align=center;verticalAlign=middle;resizable=0;points=[];autosize=1;strokeColor=none;fillColor=none;fontSize=12;fontColor=#E4FDE1;" parent="3y8yjmwaF7QzrDSz1sdv-41" vertex="1">
          <mxGeometry x="50" y="25" width="170" height="30" as="geometry" />
        </mxCell>
        <mxCell id="3y8yjmwaF7QzrDSz1sdv-43" value="&lt;a class=&quot;no-underline color-fg-default Link--onHover text-bold&quot; href=&quot;https://github.com/MSGequipment/MS005-PC/blob/c0dc92c4f5a4eaf558f3153e84f72464c5266e1c/MS005/MS005/GPIO/GpioOutPin.cs#L72&quot; style=&quot;box-sizing: border-box; background-color: rgb(22, 27, 34); font-family: -apple-system, &amp;quot;system-ui&amp;quot;, &amp;quot;Segoe UI&amp;quot;, &amp;quot;Noto Sans&amp;quot;, Helvetica, Arial, sans-serif, &amp;quot;Apple Color Emoji&amp;quot;, &amp;quot;Segoe UI Emoji&amp;quot;; text-align: start; color: var(--color-fg-default)  !important; text-decoration-line: none !important; font-weight: var(--base-text-weight-semibold, 600)  !important;&quot;&gt;GPIO/GpioInputPin.cs&lt;/a&gt;" style="swimlane;whiteSpace=wrap;html=1;strokeColor=#028090;strokeWidth=2;fontSize=12;fontColor=#E4FDE1;fillColor=#F45B69;" parent="WIyWlLk6GJQsqaUBKTNV-1" vertex="1">
          <mxGeometry x="-750" y="810" width="270" height="60" as="geometry" />
        </mxCell>
        <mxCell id="3y8yjmwaF7QzrDSz1sdv-44" value="&lt;font color=&quot;#ffffff&quot;&gt;Настройка GPIO входов&lt;/font&gt;" style="text;html=1;align=center;verticalAlign=middle;resizable=0;points=[];autosize=1;strokeColor=none;fillColor=none;fontSize=12;fontColor=#E4FDE1;" parent="3y8yjmwaF7QzrDSz1sdv-43" vertex="1">
          <mxGeometry x="55" y="25" width="160" height="30" as="geometry" />
        </mxCell>
        <mxCell id="3y8yjmwaF7QzrDSz1sdv-45" value="&lt;a style=&quot;box-sizing: border-box; background-color: rgb(22, 27, 34); font-family: -apple-system, &amp;quot;system-ui&amp;quot;, &amp;quot;Segoe UI&amp;quot;, &amp;quot;Noto Sans&amp;quot;, Helvetica, Arial, sans-serif, &amp;quot;Apple Color Emoji&amp;quot;, &amp;quot;Segoe UI Emoji&amp;quot;; text-align: start; color: var(--color-fg-default)  !important; text-decoration-line: none !important; font-weight: var(--base-text-weight-semibold, 600)  !important;&quot; href=&quot;https://github.com/MSGequipment/MS005-PC/blob/c0dc92c4f5a4eaf558f3153e84f72464c5266e1c/MS005/MS005/RS485/RS485Devices.cs#L10&quot; class=&quot;no-underline color-fg-default Link--onHover text-bold&quot;&gt;RS485/RS485Devices.cs&lt;/a&gt;" style="swimlane;whiteSpace=wrap;html=1;strokeColor=#028090;strokeWidth=2;fontSize=12;fontColor=#E4FDE1;fillColor=#F45B69;" parent="WIyWlLk6GJQsqaUBKTNV-1" vertex="1">
          <mxGeometry x="-750" y="880" width="270" height="60" as="geometry" />
        </mxCell>
        <mxCell id="3y8yjmwaF7QzrDSz1sdv-46" value="&lt;font color=&quot;#ffffff&quot;&gt;Настройка устройств модбаса&lt;/font&gt;" style="text;html=1;align=center;verticalAlign=middle;resizable=0;points=[];autosize=1;strokeColor=none;fillColor=none;fontSize=12;fontColor=#E4FDE1;" parent="3y8yjmwaF7QzrDSz1sdv-45" vertex="1">
          <mxGeometry x="35" y="25" width="200" height="30" as="geometry" />
        </mxCell>
        <mxCell id="3y8yjmwaF7QzrDSz1sdv-47" value="&lt;a style=&quot;box-sizing: border-box; background-color: rgb(22, 27, 34); cursor: pointer; font-family: -apple-system, &amp;quot;system-ui&amp;quot;, &amp;quot;Segoe UI&amp;quot;, &amp;quot;Noto Sans&amp;quot;, Helvetica, Arial, sans-serif, &amp;quot;Apple Color Emoji&amp;quot;, &amp;quot;Segoe UI Emoji&amp;quot;; text-align: start; color: var(--color-accent-fg)  !important; font-weight: var(--base-text-weight-semibold, 600)  !important;&quot; href=&quot;https://github.com/MSGequipment/MS005-PC/blob/c0dc92c4f5a4eaf558f3153e84f72464c5266e1c/MS005/MS005/Control/IgnitionControl.cs#L12&quot; class=&quot;no-underline color-fg-default Link--onHover text-bold&quot;&gt;Control/IgnitionControl.cs&lt;/a&gt;" style="swimlane;whiteSpace=wrap;html=1;strokeColor=#028090;strokeWidth=2;fontSize=12;fontColor=#E4FDE1;fillColor=#F45B69;" parent="WIyWlLk6GJQsqaUBKTNV-1" vertex="1">
          <mxGeometry x="-750" y="950" width="270" height="60" as="geometry" />
        </mxCell>
        <mxCell id="3y8yjmwaF7QzrDSz1sdv-48" value="&lt;font color=&quot;#ffffff&quot;&gt;Настройка и управление К15&lt;/font&gt;" style="text;html=1;align=center;verticalAlign=middle;resizable=0;points=[];autosize=1;strokeColor=none;fillColor=none;fontSize=12;fontColor=#E4FDE1;" parent="3y8yjmwaF7QzrDSz1sdv-47" vertex="1">
          <mxGeometry x="40" y="25" width="190" height="30" as="geometry" />
        </mxCell>
        <mxCell id="3y8yjmwaF7QzrDSz1sdv-49" value="&lt;a style=&quot;box-sizing: border-box; background-color: rgb(22, 27, 34); cursor: pointer; font-family: -apple-system, &amp;quot;system-ui&amp;quot;, &amp;quot;Segoe UI&amp;quot;, &amp;quot;Noto Sans&amp;quot;, Helvetica, Arial, sans-serif, &amp;quot;Apple Color Emoji&amp;quot;, &amp;quot;Segoe UI Emoji&amp;quot;; text-align: start; color: var(--color-accent-fg)  !important; font-weight: var(--base-text-weight-semibold, 600)  !important;&quot; href=&quot;https://github.com/MSGequipment/MS005-PC/blob/c0dc92c4f5a4eaf558f3153e84f72464c5266e1c/MS005/MS005/Protocols/LBGControl.cs#L27&quot; class=&quot;no-underline color-fg-default Link--onHover text-bold&quot;&gt;Protocols/LBGControl.cs&lt;/a&gt;" style="swimlane;whiteSpace=wrap;html=1;strokeColor=#028090;strokeWidth=2;fontSize=12;fontColor=#E4FDE1;fillColor=#F45B69;" parent="WIyWlLk6GJQsqaUBKTNV-1" vertex="1">
          <mxGeometry x="-750" y="1020" width="270" height="60" as="geometry" />
        </mxCell>
        <mxCell id="3y8yjmwaF7QzrDSz1sdv-50" value="&lt;font color=&quot;#ffffff&quot;&gt;Настройка и управление всем, что связано&amp;nbsp;&lt;br&gt;с линией GC&lt;br&gt;&lt;/font&gt;" style="text;html=1;align=center;verticalAlign=middle;resizable=0;points=[];autosize=1;strokeColor=none;fillColor=none;fontSize=12;fontColor=#E4FDE1;" parent="3y8yjmwaF7QzrDSz1sdv-49" vertex="1">
          <mxGeometry y="20" width="270" height="40" as="geometry" />
        </mxCell>
        <mxCell id="3y8yjmwaF7QzrDSz1sdv-51" value="&lt;a style=&quot;box-sizing: border-box; background-color: rgb(22, 27, 34); font-family: -apple-system, &amp;quot;system-ui&amp;quot;, &amp;quot;Segoe UI&amp;quot;, &amp;quot;Noto Sans&amp;quot;, Helvetica, Arial, sans-serif, &amp;quot;Apple Color Emoji&amp;quot;, &amp;quot;Segoe UI Emoji&amp;quot;; text-align: start; color: var(--color-fg-default)  !important; text-decoration-line: none !important; font-weight: var(--base-text-weight-semibold, 600)  !important;&quot; href=&quot;https://github.com/MSGequipment/MS005-PC/blob/c0dc92c4f5a4eaf558f3153e84f72464c5266e1c/MS005/MS005/Control/BPlusControl.cs#L11&quot; class=&quot;no-underline color-fg-default Link--onHover text-bold&quot;&gt;Control/BPlusControl.cs&lt;/a&gt;" style="swimlane;whiteSpace=wrap;html=1;strokeColor=#028090;strokeWidth=2;fontSize=12;fontColor=#E4FDE1;fillColor=#F45B69;" parent="WIyWlLk6GJQsqaUBKTNV-1" vertex="1">
          <mxGeometry x="-750" y="1090" width="270" height="60" as="geometry" />
        </mxCell>
        <mxCell id="3y8yjmwaF7QzrDSz1sdv-52" value="&lt;font color=&quot;#ffffff&quot;&gt;Настройка и управление В+ (вкл\выкл)&lt;br&gt;&lt;/font&gt;" style="text;html=1;align=center;verticalAlign=middle;resizable=0;points=[];autosize=1;strokeColor=none;fillColor=none;fontSize=12;fontColor=#E4FDE1;" parent="3y8yjmwaF7QzrDSz1sdv-51" vertex="1">
          <mxGeometry x="10" y="25" width="250" height="30" as="geometry" />
        </mxCell>
        <mxCell id="3y8yjmwaF7QzrDSz1sdv-53" value="&lt;a style=&quot;box-sizing: border-box; background-color: rgb(22, 27, 34); cursor: pointer; font-family: -apple-system, &amp;quot;system-ui&amp;quot;, &amp;quot;Segoe UI&amp;quot;, &amp;quot;Noto Sans&amp;quot;, Helvetica, Arial, sans-serif, &amp;quot;Apple Color Emoji&amp;quot;, &amp;quot;Segoe UI Emoji&amp;quot;; text-align: start; color: var(--color-accent-fg)  !important; font-weight: var(--base-text-weight-semibold, 600)  !important;&quot; href=&quot;https://github.com/MSGequipment/MS005-PC/blob/c0dc92c4f5a4eaf558f3153e84f72464c5266e1c/MS005/MS005/Misc/VariablesModel.cs#L19&quot; class=&quot;no-underline color-fg-default Link--onHover text-bold&quot;&gt;Misc/VariablesModel.cs&lt;/a&gt;" style="swimlane;whiteSpace=wrap;html=1;strokeColor=#028090;strokeWidth=2;fontSize=12;fontColor=#E4FDE1;fillColor=#F45B69;" parent="WIyWlLk6GJQsqaUBKTNV-1" vertex="1">
          <mxGeometry x="-750" y="1160" width="275" height="70" as="geometry" />
        </mxCell>
        <mxCell id="3y8yjmwaF7QzrDSz1sdv-55" value="&lt;font color=&quot;#ffffff&quot;&gt;Тут хранятся ВСЕ переменные, связанные с&lt;br&gt;измерениями (всё, что прилетает с платы)&lt;br&gt;&lt;/font&gt;" style="text;html=1;align=center;verticalAlign=middle;resizable=0;points=[];autosize=1;strokeColor=none;fillColor=none;fontSize=12;fontColor=#E4FDE1;" parent="WIyWlLk6GJQsqaUBKTNV-1" vertex="1">
          <mxGeometry x="-745" y="1190" width="280" height="40" as="geometry" />
        </mxCell>
        <mxCell id="3y8yjmwaF7QzrDSz1sdv-57" value="&lt;a style=&quot;box-sizing: border-box; background-color: rgb(22, 27, 34); cursor: pointer; font-family: -apple-system, &amp;quot;system-ui&amp;quot;, &amp;quot;Segoe UI&amp;quot;, &amp;quot;Noto Sans&amp;quot;, Helvetica, Arial, sans-serif, &amp;quot;Apple Color Emoji&amp;quot;, &amp;quot;Segoe UI Emoji&amp;quot;; text-align: start; color: var(--color-accent-fg)  !important; font-weight: var(--base-text-weight-semibold, 600)  !important;&quot; href=&quot;https://github.com/MSGequipment/MS005-PC/blob/c0dc92c4f5a4eaf558f3153e84f72464c5266e1c/MS005/MS005/Models/DatabaseModel.cs#L29&quot; class=&quot;no-underline color-fg-default Link--onHover text-bold&quot;&gt;Models/DatabaseModel.cs&lt;/a&gt;" style="swimlane;whiteSpace=wrap;html=1;strokeColor=#028090;strokeWidth=2;fontSize=12;fontColor=#E4FDE1;fillColor=#F45B69;" parent="WIyWlLk6GJQsqaUBKTNV-1" vertex="1">
          <mxGeometry x="-750" y="1240" width="270" height="60" as="geometry" />
        </mxCell>
        <mxCell id="3y8yjmwaF7QzrDSz1sdv-58" value="&lt;font color=&quot;#ffffff&quot;&gt;Управление базой данных&lt;br&gt;&lt;/font&gt;" style="text;html=1;align=center;verticalAlign=middle;resizable=0;points=[];autosize=1;strokeColor=none;fillColor=none;fontSize=12;fontColor=#E4FDE1;" parent="3y8yjmwaF7QzrDSz1sdv-57" vertex="1">
          <mxGeometry x="50" y="25" width="170" height="30" as="geometry" />
        </mxCell>
        <mxCell id="3y8yjmwaF7QzrDSz1sdv-59" value="&lt;a style=&quot;box-sizing: border-box; background-color: rgb(22, 27, 34); font-family: -apple-system, &amp;quot;system-ui&amp;quot;, &amp;quot;Segoe UI&amp;quot;, &amp;quot;Noto Sans&amp;quot;, Helvetica, Arial, sans-serif, &amp;quot;Apple Color Emoji&amp;quot;, &amp;quot;Segoe UI Emoji&amp;quot;; text-align: start; color: var(--color-fg-default)  !important; text-decoration-line: none !important; font-weight: var(--base-text-weight-semibold, 600)  !important;&quot; href=&quot;https://github.com/MSGequipment/MS005-PC/blob/c0dc92c4f5a4eaf558f3153e84f72464c5266e1c/MS005/MS005/Control/VacuumControl.cs#L18&quot; class=&quot;no-underline color-fg-default Link--onHover text-bold&quot;&gt;Control/VacuumControl.cs&lt;/a&gt;" style="swimlane;whiteSpace=wrap;html=1;strokeColor=#028090;strokeWidth=2;fontSize=12;fontColor=#E4FDE1;fillColor=#F45B69;" parent="WIyWlLk6GJQsqaUBKTNV-1" vertex="1">
          <mxGeometry x="-750" y="1310" width="270" height="60" as="geometry" />
        </mxCell>
        <mxCell id="3y8yjmwaF7QzrDSz1sdv-60" value="&lt;font color=&quot;#ffffff&quot;&gt;Управление клапанами&lt;br&gt;&lt;/font&gt;" style="text;html=1;align=center;verticalAlign=middle;resizable=0;points=[];autosize=1;strokeColor=none;fillColor=none;fontSize=12;fontColor=#E4FDE1;" parent="3y8yjmwaF7QzrDSz1sdv-59" vertex="1">
          <mxGeometry x="55" y="25" width="160" height="30" as="geometry" />
        </mxCell>
        <mxCell id="3y8yjmwaF7QzrDSz1sdv-61" value="&lt;a style=&quot;box-sizing: border-box; background-color: rgb(22, 27, 34); cursor: pointer; font-family: -apple-system, &amp;quot;system-ui&amp;quot;, &amp;quot;Segoe UI&amp;quot;, &amp;quot;Noto Sans&amp;quot;, Helvetica, Arial, sans-serif, &amp;quot;Apple Color Emoji&amp;quot;, &amp;quot;Segoe UI Emoji&amp;quot;; text-align: start; color: var(--color-accent-fg)  !important; font-weight: var(--base-text-weight-semibold, 600)  !important;&quot; href=&quot;https://github.com/MSGequipment/MS005-PC/blob/c0dc92c4f5a4eaf558f3153e84f72464c5266e1c/MS005/MS005/Regulator%20testing/RegulatorTestControl.cs#L18&quot; class=&quot;no-underline color-fg-default Link--onHover text-bold&quot;&gt;Regulator testing/RegulatorTestControl.cs&lt;/a&gt;" style="swimlane;whiteSpace=wrap;html=1;strokeColor=#028090;strokeWidth=2;fontSize=12;fontColor=#E4FDE1;fillColor=#F45B69;" parent="WIyWlLk6GJQsqaUBKTNV-1" vertex="1">
          <mxGeometry x="-750" y="1380" width="270" height="60" as="geometry" />
        </mxCell>
        <mxCell id="3y8yjmwaF7QzrDSz1sdv-62" value="&lt;font color=&quot;#ffffff&quot;&gt;Управление реле-регуляторами&amp;nbsp;&lt;br&gt;&lt;/font&gt;" style="text;html=1;align=center;verticalAlign=middle;resizable=0;points=[];autosize=1;strokeColor=none;fillColor=none;fontSize=12;fontColor=#E4FDE1;" parent="3y8yjmwaF7QzrDSz1sdv-61" vertex="1">
          <mxGeometry x="30" y="25" width="210" height="30" as="geometry" />
        </mxCell>
        <mxCell id="3y8yjmwaF7QzrDSz1sdv-63" value="&lt;a style=&quot;box-sizing: border-box; background-color: rgb(22, 27, 34); cursor: pointer; font-family: -apple-system, &amp;quot;system-ui&amp;quot;, &amp;quot;Segoe UI&amp;quot;, &amp;quot;Noto Sans&amp;quot;, Helvetica, Arial, sans-serif, &amp;quot;Apple Color Emoji&amp;quot;, &amp;quot;Segoe UI Emoji&amp;quot;; text-align: start; color: var(--color-accent-fg)  !important; font-weight: var(--base-text-weight-semibold, 600)  !important;&quot; href=&quot;https://github.com/MSGequipment/MS005-PC/blob/c0dc92c4f5a4eaf558f3153e84f72464c5266e1c/MS005/MS005/Camera%20Control/MLX90640.cs#L50&quot; class=&quot;no-underline color-fg-default Link--onHover text-bold&quot;&gt;Camera Control/MLX90640.cs&lt;/a&gt;" style="swimlane;whiteSpace=wrap;html=1;strokeColor=#028090;strokeWidth=2;fontSize=12;fontColor=#E4FDE1;fillColor=#F45B69;" parent="WIyWlLk6GJQsqaUBKTNV-1" vertex="1">
          <mxGeometry x="-750" y="1450" width="270" height="60" as="geometry" />
        </mxCell>
        <mxCell id="3y8yjmwaF7QzrDSz1sdv-64" value="&lt;font color=&quot;#ffffff&quot;&gt;Управление камерой&amp;nbsp;&lt;br&gt;&lt;/font&gt;" style="text;html=1;align=center;verticalAlign=middle;resizable=0;points=[];autosize=1;strokeColor=none;fillColor=none;fontSize=12;fontColor=#E4FDE1;" parent="3y8yjmwaF7QzrDSz1sdv-63" vertex="1">
          <mxGeometry x="60" y="25" width="150" height="30" as="geometry" />
        </mxCell>
        <mxCell id="3y8yjmwaF7QzrDSz1sdv-65" value="&lt;a style=&quot;box-sizing: border-box; background-color: rgb(22, 27, 34); cursor: pointer; font-family: -apple-system, &amp;quot;system-ui&amp;quot;, &amp;quot;Segoe UI&amp;quot;, &amp;quot;Noto Sans&amp;quot;, Helvetica, Arial, sans-serif, &amp;quot;Apple Color Emoji&amp;quot;, &amp;quot;Segoe UI Emoji&amp;quot;; text-align: start; color: var(--color-accent-fg)  !important; font-weight: var(--base-text-weight-semibold, 600)  !important;&quot; href=&quot;https://github.com/MSGequipment/MS005-PC/blob/c0dc92c4f5a4eaf558f3153e84f72464c5266e1c/MS005/MS005/Models/BatteryChargingModel.cs#L13&quot; class=&quot;no-underline color-fg-default Link--onHover text-bold&quot;&gt;Models/BatteryChargingModel.cs&lt;/a&gt;" style="swimlane;whiteSpace=wrap;html=1;strokeColor=#028090;strokeWidth=2;fontSize=12;fontColor=#E4FDE1;fillColor=#F45B69;" parent="WIyWlLk6GJQsqaUBKTNV-1" vertex="1">
          <mxGeometry x="-750" y="1520" width="270" height="60" as="geometry" />
        </mxCell>
        <mxCell id="3y8yjmwaF7QzrDSz1sdv-66" value="&lt;font color=&quot;#ffffff&quot;&gt;Управление зарядкой аккумов&lt;br&gt;&lt;/font&gt;" style="text;html=1;align=center;verticalAlign=middle;resizable=0;points=[];autosize=1;strokeColor=none;fillColor=none;fontSize=12;fontColor=#E4FDE1;" parent="3y8yjmwaF7QzrDSz1sdv-65" vertex="1">
          <mxGeometry x="35" y="25" width="200" height="30" as="geometry" />
        </mxCell>
        <mxCell id="3y8yjmwaF7QzrDSz1sdv-67" style="edgeStyle=orthogonalEdgeStyle;rounded=0;orthogonalLoop=1;jettySize=auto;html=1;exitX=0;exitY=1;exitDx=0;exitDy=0;entryX=0;entryY=0.5;entryDx=0;entryDy=0;strokeColor=#028090;fontColor=#E4FDE1;fillColor=#F45B69;labelBackgroundColor=#114B5F;" parent="WIyWlLk6GJQsqaUBKTNV-1" source="3y8yjmwaF7QzrDSz1sdv-11" target="3y8yjmwaF7QzrDSz1sdv-41" edge="1">
          <mxGeometry relative="1" as="geometry" />
        </mxCell>
        <mxCell id="3y8yjmwaF7QzrDSz1sdv-68" style="edgeStyle=orthogonalEdgeStyle;rounded=0;orthogonalLoop=1;jettySize=auto;html=1;exitX=0;exitY=1;exitDx=0;exitDy=0;entryX=0;entryY=0.5;entryDx=0;entryDy=0;strokeColor=#028090;fontColor=#E4FDE1;fillColor=#F45B69;labelBackgroundColor=#114B5F;" parent="WIyWlLk6GJQsqaUBKTNV-1" source="3y8yjmwaF7QzrDSz1sdv-11" target="3y8yjmwaF7QzrDSz1sdv-43" edge="1">
          <mxGeometry relative="1" as="geometry" />
        </mxCell>
        <mxCell id="3y8yjmwaF7QzrDSz1sdv-69" style="edgeStyle=orthogonalEdgeStyle;rounded=0;orthogonalLoop=1;jettySize=auto;html=1;exitX=0;exitY=1;exitDx=0;exitDy=0;entryX=0;entryY=0.5;entryDx=0;entryDy=0;strokeColor=#028090;fontColor=#E4FDE1;fillColor=#F45B69;labelBackgroundColor=#114B5F;" parent="WIyWlLk6GJQsqaUBKTNV-1" source="3y8yjmwaF7QzrDSz1sdv-11" target="3y8yjmwaF7QzrDSz1sdv-45" edge="1">
          <mxGeometry relative="1" as="geometry" />
        </mxCell>
        <mxCell id="3y8yjmwaF7QzrDSz1sdv-70" value="&lt;a style=&quot;box-sizing: border-box; background-color: rgb(22, 27, 34); cursor: pointer; font-family: -apple-system, &amp;quot;system-ui&amp;quot;, &amp;quot;Segoe UI&amp;quot;, &amp;quot;Noto Sans&amp;quot;, Helvetica, Arial, sans-serif, &amp;quot;Apple Color Emoji&amp;quot;, &amp;quot;Segoe UI Emoji&amp;quot;; text-align: start; color: var(--color-accent-fg)  !important; font-weight: var(--base-text-weight-semibold, 600)  !important;&quot; href=&quot;https://github.com/MSGequipment/MS005-PC/blob/c0dc92c4f5a4eaf558f3153e84f72464c5266e1c/MS005/MS005/Ethernet/EthConnection.cs#L15&quot; class=&quot;no-underline color-fg-default Link--onHover text-bold&quot;&gt;Ethernet/EthConnection.cs&lt;/a&gt;" style="swimlane;whiteSpace=wrap;html=1;strokeColor=#028090;strokeWidth=2;fontSize=12;fontColor=#E4FDE1;fillColor=#F45B69;" parent="WIyWlLk6GJQsqaUBKTNV-1" vertex="1">
          <mxGeometry x="-750" y="1590" width="270" height="60" as="geometry" />
        </mxCell>
        <mxCell id="3y8yjmwaF7QzrDSz1sdv-71" value="&lt;font color=&quot;#ffffff&quot;&gt;Основной класс работы с эзернетом&lt;br&gt;&lt;/font&gt;" style="text;html=1;align=center;verticalAlign=middle;resizable=0;points=[];autosize=1;strokeColor=none;fillColor=none;fontSize=12;fontColor=#E4FDE1;" parent="3y8yjmwaF7QzrDSz1sdv-70" vertex="1">
          <mxGeometry x="20" y="25" width="230" height="30" as="geometry" />
        </mxCell>
        <mxCell id="3y8yjmwaF7QzrDSz1sdv-72" style="edgeStyle=orthogonalEdgeStyle;rounded=0;orthogonalLoop=1;jettySize=auto;html=1;exitX=0;exitY=1;exitDx=0;exitDy=0;entryX=0;entryY=0.5;entryDx=0;entryDy=0;strokeColor=#028090;fontColor=#E4FDE1;fillColor=#F45B69;labelBackgroundColor=#114B5F;" parent="WIyWlLk6GJQsqaUBKTNV-1" source="3y8yjmwaF7QzrDSz1sdv-11" target="3y8yjmwaF7QzrDSz1sdv-47" edge="1">
          <mxGeometry relative="1" as="geometry" />
        </mxCell>
        <mxCell id="3y8yjmwaF7QzrDSz1sdv-75" style="edgeStyle=orthogonalEdgeStyle;rounded=0;orthogonalLoop=1;jettySize=auto;html=1;exitX=0;exitY=1;exitDx=0;exitDy=0;entryX=0;entryY=0.5;entryDx=0;entryDy=0;entryPerimeter=0;strokeColor=#028090;fontColor=#E4FDE1;fillColor=#F45B69;labelBackgroundColor=#114B5F;" parent="WIyWlLk6GJQsqaUBKTNV-1" source="3y8yjmwaF7QzrDSz1sdv-11" target="3y8yjmwaF7QzrDSz1sdv-50" edge="1">
          <mxGeometry relative="1" as="geometry" />
        </mxCell>
        <mxCell id="3y8yjmwaF7QzrDSz1sdv-76" style="edgeStyle=orthogonalEdgeStyle;rounded=0;orthogonalLoop=1;jettySize=auto;html=1;exitX=0;exitY=1;exitDx=0;exitDy=0;entryX=0;entryY=0.5;entryDx=0;entryDy=0;strokeColor=#028090;fontColor=#E4FDE1;fillColor=#F45B69;labelBackgroundColor=#114B5F;" parent="WIyWlLk6GJQsqaUBKTNV-1" source="3y8yjmwaF7QzrDSz1sdv-11" target="3y8yjmwaF7QzrDSz1sdv-51" edge="1">
          <mxGeometry relative="1" as="geometry" />
        </mxCell>
        <mxCell id="3y8yjmwaF7QzrDSz1sdv-77" style="edgeStyle=orthogonalEdgeStyle;rounded=0;orthogonalLoop=1;jettySize=auto;html=1;exitX=0;exitY=1;exitDx=0;exitDy=0;entryX=0;entryY=0.5;entryDx=0;entryDy=0;strokeColor=#028090;fontColor=#E4FDE1;fillColor=#F45B69;labelBackgroundColor=#114B5F;" parent="WIyWlLk6GJQsqaUBKTNV-1" source="3y8yjmwaF7QzrDSz1sdv-11" target="3y8yjmwaF7QzrDSz1sdv-53" edge="1">
          <mxGeometry relative="1" as="geometry" />
        </mxCell>
        <mxCell id="3y8yjmwaF7QzrDSz1sdv-78" style="edgeStyle=orthogonalEdgeStyle;rounded=0;orthogonalLoop=1;jettySize=auto;html=1;exitX=0;exitY=1;exitDx=0;exitDy=0;entryX=0;entryY=0.5;entryDx=0;entryDy=0;strokeColor=#028090;fontColor=#E4FDE1;fillColor=#F45B69;labelBackgroundColor=#114B5F;" parent="WIyWlLk6GJQsqaUBKTNV-1" source="3y8yjmwaF7QzrDSz1sdv-11" target="3y8yjmwaF7QzrDSz1sdv-57" edge="1">
          <mxGeometry relative="1" as="geometry" />
        </mxCell>
        <mxCell id="3y8yjmwaF7QzrDSz1sdv-79" style="edgeStyle=orthogonalEdgeStyle;rounded=0;orthogonalLoop=1;jettySize=auto;html=1;exitX=0;exitY=1;exitDx=0;exitDy=0;entryX=0;entryY=0.5;entryDx=0;entryDy=0;strokeColor=#028090;fontColor=#E4FDE1;fillColor=#F45B69;labelBackgroundColor=#114B5F;" parent="WIyWlLk6GJQsqaUBKTNV-1" source="3y8yjmwaF7QzrDSz1sdv-11" target="3y8yjmwaF7QzrDSz1sdv-59" edge="1">
          <mxGeometry relative="1" as="geometry" />
        </mxCell>
        <mxCell id="3y8yjmwaF7QzrDSz1sdv-80" style="edgeStyle=orthogonalEdgeStyle;rounded=0;orthogonalLoop=1;jettySize=auto;html=1;exitX=0;exitY=1;exitDx=0;exitDy=0;entryX=0;entryY=0.5;entryDx=0;entryDy=0;strokeColor=#028090;fontColor=#E4FDE1;fillColor=#F45B69;labelBackgroundColor=#114B5F;" parent="WIyWlLk6GJQsqaUBKTNV-1" source="3y8yjmwaF7QzrDSz1sdv-11" target="3y8yjmwaF7QzrDSz1sdv-70" edge="1">
          <mxGeometry relative="1" as="geometry" />
        </mxCell>
        <mxCell id="3y8yjmwaF7QzrDSz1sdv-81" style="edgeStyle=orthogonalEdgeStyle;rounded=0;orthogonalLoop=1;jettySize=auto;html=1;exitX=0;exitY=1;exitDx=0;exitDy=0;entryX=0;entryY=0.5;entryDx=0;entryDy=0;strokeColor=#028090;fontColor=#E4FDE1;fillColor=#F45B69;labelBackgroundColor=#114B5F;" parent="WIyWlLk6GJQsqaUBKTNV-1" source="3y8yjmwaF7QzrDSz1sdv-11" target="3y8yjmwaF7QzrDSz1sdv-65" edge="1">
          <mxGeometry relative="1" as="geometry" />
        </mxCell>
        <mxCell id="3y8yjmwaF7QzrDSz1sdv-82" style="edgeStyle=orthogonalEdgeStyle;rounded=0;orthogonalLoop=1;jettySize=auto;html=1;exitX=0;exitY=1;exitDx=0;exitDy=0;entryX=0;entryY=0.5;entryDx=0;entryDy=0;strokeColor=#028090;fontColor=#E4FDE1;fillColor=#F45B69;labelBackgroundColor=#114B5F;" parent="WIyWlLk6GJQsqaUBKTNV-1" source="3y8yjmwaF7QzrDSz1sdv-11" target="3y8yjmwaF7QzrDSz1sdv-63" edge="1">
          <mxGeometry relative="1" as="geometry" />
        </mxCell>
        <mxCell id="3y8yjmwaF7QzrDSz1sdv-83" style="edgeStyle=orthogonalEdgeStyle;rounded=0;orthogonalLoop=1;jettySize=auto;html=1;exitX=0;exitY=1;exitDx=0;exitDy=0;entryX=0;entryY=0.5;entryDx=0;entryDy=0;strokeColor=#028090;fontColor=#E4FDE1;fillColor=#F45B69;labelBackgroundColor=#114B5F;" parent="WIyWlLk6GJQsqaUBKTNV-1" source="3y8yjmwaF7QzrDSz1sdv-11" target="3y8yjmwaF7QzrDSz1sdv-61" edge="1">
          <mxGeometry relative="1" as="geometry" />
        </mxCell>
        <mxCell id="3y8yjmwaF7QzrDSz1sdv-84" style="edgeStyle=orthogonalEdgeStyle;rounded=0;orthogonalLoop=1;jettySize=auto;html=1;entryX=0.5;entryY=1;entryDx=0;entryDy=0;strokeColor=#028090;fontSize=12;fontColor=#E4FDE1;fillColor=#F45B69;labelBackgroundColor=#114B5F;" parent="WIyWlLk6GJQsqaUBKTNV-1" source="3y8yjmwaF7QzrDSz1sdv-85" target="3y8yjmwaF7QzrDSz1sdv-89" edge="1">
          <mxGeometry relative="1" as="geometry" />
        </mxCell>
        <mxCell id="3y8yjmwaF7QzrDSz1sdv-85" value="&lt;font style=&quot;font-size: 12px;&quot;&gt;&lt;font color=&quot;#ffffff&quot; style=&quot;font-size: 12px;&quot;&gt;Models\&lt;/font&gt;&lt;span style=&quot;font-family: ui-monospace, SFMono-Regular, &amp;quot;SF Mono&amp;quot;, Menlo, Consolas, &amp;quot;Liberation Mono&amp;quot;, monospace; font-weight: 400; text-align: start;&quot;&gt;&lt;font style=&quot;&quot; color=&quot;#ffff33&quot;&gt;AlternatorManualModeSetupModel&lt;/font&gt;&lt;/span&gt;&lt;a class=&quot;js-navigation-open Link--primary&quot; title=&quot;AlternatorAutomaticModel.cs&quot; data-turbo-frame=&quot;repo-content-turbo-frame&quot; href=&quot;https://github.com/MSGequipment/MS005-PC/blob/master/MS005/MS005/Models/AlternatorAutomaticModel.cs&quot; style=&quot;box-sizing: border-box; text-decoration-line: none; font-family: -apple-system, &amp;quot;system-ui&amp;quot;, &amp;quot;Segoe UI&amp;quot;, &amp;quot;Noto Sans&amp;quot;, Helvetica, Arial, sans-serif, &amp;quot;Apple Color Emoji&amp;quot;, &amp;quot;Segoe UI Emoji&amp;quot;; font-weight: 400; text-align: start;&quot;&gt;&lt;font color=&quot;#ffff33&quot;&gt;.cs&lt;/font&gt;&lt;/a&gt;&lt;/font&gt;" style="swimlane;whiteSpace=wrap;html=1;strokeColor=#028090;strokeWidth=2;fontSize=12;fontColor=#E4FDE1;fillColor=#F45B69;" parent="WIyWlLk6GJQsqaUBKTNV-1" vertex="1">
          <mxGeometry x="-10" y="310" width="315" height="75" as="geometry" />
        </mxCell>
        <mxCell id="3y8yjmwaF7QzrDSz1sdv-86" value="&lt;font color=&quot;#ffffff&quot;&gt;Класс логики окна настройки генератора в ручную&lt;/font&gt;" style="text;html=1;align=center;verticalAlign=middle;resizable=0;points=[];autosize=1;strokeColor=none;fillColor=none;fontSize=12;fontColor=#E4FDE1;" parent="3y8yjmwaF7QzrDSz1sdv-85" vertex="1">
          <mxGeometry x="2.5" y="32" width="310" height="30" as="geometry" />
        </mxCell>
        <mxCell id="3y8yjmwaF7QzrDSz1sdv-87" style="edgeStyle=orthogonalEdgeStyle;rounded=0;orthogonalLoop=1;jettySize=auto;html=1;exitX=0.75;exitY=1;exitDx=0;exitDy=0;entryX=0.778;entryY=0;entryDx=0;entryDy=0;entryPerimeter=0;strokeColor=#028090;fontColor=#E4FDE1;fillColor=#F45B69;labelBackgroundColor=#114B5F;" parent="WIyWlLk6GJQsqaUBKTNV-1" source="3y8yjmwaF7QzrDSz1sdv-89" target="3y8yjmwaF7QzrDSz1sdv-85" edge="1">
          <mxGeometry relative="1" as="geometry" />
        </mxCell>
        <mxCell id="3y8yjmwaF7QzrDSz1sdv-88" style="edgeStyle=orthogonalEdgeStyle;rounded=0;orthogonalLoop=1;jettySize=auto;html=1;strokeColor=#028090;fontColor=#E4FDE1;fillColor=#F45B69;labelBackgroundColor=#114B5F;" parent="WIyWlLk6GJQsqaUBKTNV-1" source="3y8yjmwaF7QzrDSz1sdv-89" target="3y8yjmwaF7QzrDSz1sdv-92" edge="1">
          <mxGeometry relative="1" as="geometry" />
        </mxCell>
        <mxCell id="N_Y2BpB6N8M6M0zJIPe3-45" style="edgeStyle=orthogonalEdgeStyle;rounded=0;orthogonalLoop=1;jettySize=auto;html=1;entryX=0;entryY=0.5;entryDx=0;entryDy=0;strokeColor=#028090;fontFamily=Verdana;fontColor=#FFFF33;fillColor=#F45B69;" parent="WIyWlLk6GJQsqaUBKTNV-1" source="3y8yjmwaF7QzrDSz1sdv-89" target="N_Y2BpB6N8M6M0zJIPe3-37" edge="1">
          <mxGeometry relative="1" as="geometry" />
        </mxCell>
        <mxCell id="3y8yjmwaF7QzrDSz1sdv-89" value="ViewModels\&lt;span style=&quot;box-sizing: border-box; font-family: ui-monospace, SFMono-Regular, &amp;quot;SF Mono&amp;quot;, Menlo, Consolas, &amp;quot;Liberation Mono&amp;quot;, monospace; font-weight: 400; text-align: start;&quot; class=&quot;pl-en&quot;&gt;&lt;span style=&quot;box-sizing: border-box;&quot; data-hydro-click-hmac=&quot;5f341075337c455da308e6e12d2586667c5935532e5564b892a86433cfcfb846&quot; data-hydro-click=&quot;{&amp;quot;event_type&amp;quot;:&amp;quot;code_navigation.click_on_symbol&amp;quot;,&amp;quot;payload&amp;quot;:{&amp;quot;action&amp;quot;:&amp;quot;click_on_symbol&amp;quot;,&amp;quot;repository_id&amp;quot;:252561255,&amp;quot;ref&amp;quot;:&amp;quot;master&amp;quot;,&amp;quot;language&amp;quot;:&amp;quot;C#&amp;quot;,&amp;quot;backend&amp;quot;:&amp;quot;ALEPH_FUZZY&amp;quot;,&amp;quot;code_nav_context&amp;quot;:&amp;quot;BLOB_VIEW&amp;quot;,&amp;quot;retry_backend&amp;quot;:&amp;quot;&amp;quot;,&amp;quot;cross_repo_results_included&amp;quot;:&amp;quot;CROSS_REPO_ENABLED&amp;quot;,&amp;quot;in_repo_result_count&amp;quot;:1,&amp;quot;cross_repo_result_count&amp;quot;:0,&amp;quot;originating_url&amp;quot;:&amp;quot;https://github.com/MSGequipment/MS005-PC/find-definition?q=AlternatorManualModeSetupViewModel&amp;amp;blob_path=MS005%2FMS005%2FView+Models%2FAlternatorManualModeSetupViewModel.cs&amp;amp;ref=master&amp;amp;language=C%23&amp;amp;row=14&amp;amp;col=10&amp;amp;code_nav_context=BLOB_VIEW&amp;quot;,&amp;quot;user_id&amp;quot;:33692627}}&quot; class=&quot;pl-token&quot;&gt;&lt;font style=&quot;&quot; color=&quot;#ffff33&quot;&gt;AlternatorManualModeSetupViewModel&lt;/font&gt;&lt;/span&gt;&lt;/span&gt;&lt;span style=&quot;font-family: ui-monospace, SFMono-Regular, &amp;quot;SF Mono&amp;quot;, Menlo, Consolas, &amp;quot;Liberation Mono&amp;quot;, monospace; font-weight: 400; text-align: start;&quot;&gt;&lt;font style=&quot;&quot; color=&quot;#ffff33&quot;&gt;.cs&lt;/font&gt;&lt;/span&gt;" style="swimlane;whiteSpace=wrap;html=1;labelBackgroundColor=none;strokeColor=#028090;strokeWidth=2;fontSize=12;fontColor=#E4FDE1;fillColor=#F45B69;" parent="WIyWlLk6GJQsqaUBKTNV-1" vertex="1">
          <mxGeometry x="-45" y="208" width="385" height="76" as="geometry">
            <mxRectangle x="-480" y="450" width="270" height="30" as="alternateBounds" />
          </mxGeometry>
        </mxCell>
        <mxCell id="3y8yjmwaF7QzrDSz1sdv-90" value="View Model - обмен данными с моделью и формой" style="text;html=1;align=center;verticalAlign=middle;resizable=0;points=[];autosize=1;strokeColor=none;fillColor=none;fontColor=#E4FDE1;" parent="3y8yjmwaF7QzrDSz1sdv-89" vertex="1">
          <mxGeometry x="-5" y="30" width="310" height="30" as="geometry" />
        </mxCell>
        <mxCell id="3y8yjmwaF7QzrDSz1sdv-91" style="edgeStyle=orthogonalEdgeStyle;rounded=0;orthogonalLoop=1;jettySize=auto;html=1;exitX=0.75;exitY=1;exitDx=0;exitDy=0;entryX=0.75;entryY=0;entryDx=0;entryDy=0;strokeColor=#028090;fontColor=#E4FDE1;fillColor=#F45B69;labelBackgroundColor=#114B5F;" parent="WIyWlLk6GJQsqaUBKTNV-1" source="3y8yjmwaF7QzrDSz1sdv-92" target="3y8yjmwaF7QzrDSz1sdv-89" edge="1">
          <mxGeometry relative="1" as="geometry" />
        </mxCell>
        <mxCell id="3y8yjmwaF7QzrDSz1sdv-92" value="Views\&lt;span style=&quot;font-family: ui-monospace, SFMono-Regular, &amp;quot;SF Mono&amp;quot;, Menlo, Consolas, &amp;quot;Liberation Mono&amp;quot;, monospace; font-weight: 400; text-align: start;&quot;&gt;&lt;font style=&quot;&quot; color=&quot;#ffff33&quot;&gt;AlternatorManualModeSetupView&lt;/font&gt;&lt;/span&gt;&lt;span style=&quot;font-family: ui-monospace, SFMono-Regular, &amp;quot;SF Mono&amp;quot;, Menlo, Consolas, &amp;quot;Liberation Mono&amp;quot;, monospace; font-weight: 400; text-align: start;&quot;&gt;&lt;font style=&quot;&quot; color=&quot;#ffff33&quot;&gt;.xaml&lt;/font&gt;&lt;/span&gt;" style="swimlane;whiteSpace=wrap;html=1;labelBackgroundColor=none;strokeColor=#028090;strokeWidth=2;fontSize=12;fontColor=#E4FDE1;fillColor=#F45B69;" parent="WIyWlLk6GJQsqaUBKTNV-1" vertex="1">
          <mxGeometry x="-12.5" y="110" width="320" height="76" as="geometry">
            <mxRectangle x="-480" y="450" width="270" height="30" as="alternateBounds" />
          </mxGeometry>
        </mxCell>
        <mxCell id="3y8yjmwaF7QzrDSz1sdv-93" value="Форма экрана настройки генератора в ручном режиме" style="text;html=1;align=center;verticalAlign=middle;resizable=0;points=[];autosize=1;strokeColor=none;fillColor=none;fontColor=#E4FDE1;" parent="3y8yjmwaF7QzrDSz1sdv-92" vertex="1">
          <mxGeometry x="-12.5" y="30" width="340" height="30" as="geometry" />
        </mxCell>
        <mxCell id="3y8yjmwaF7QzrDSz1sdv-94" style="edgeStyle=orthogonalEdgeStyle;rounded=0;orthogonalLoop=1;jettySize=auto;html=1;entryX=0;entryY=0.5;entryDx=0;entryDy=0;strokeColor=#028090;fontColor=#E4FDE1;fillColor=#F45B69;labelBackgroundColor=#114B5F;" parent="WIyWlLk6GJQsqaUBKTNV-1" source="3y8yjmwaF7QzrDSz1sdv-22" target="3y8yjmwaF7QzrDSz1sdv-85" edge="1">
          <mxGeometry relative="1" as="geometry">
            <Array as="points">
              <mxPoint x="-90" y="565" />
              <mxPoint x="-90" y="348" />
            </Array>
          </mxGeometry>
        </mxCell>
        <mxCell id="3y8yjmwaF7QzrDSz1sdv-105" style="edgeStyle=orthogonalEdgeStyle;rounded=0;orthogonalLoop=1;jettySize=auto;html=1;entryX=0.5;entryY=1;entryDx=0;entryDy=0;strokeColor=#028090;fontSize=12;fontColor=#E4FDE1;fillColor=#F45B69;labelBackgroundColor=#114B5F;" parent="WIyWlLk6GJQsqaUBKTNV-1" source="3y8yjmwaF7QzrDSz1sdv-106" target="3y8yjmwaF7QzrDSz1sdv-110" edge="1">
          <mxGeometry relative="1" as="geometry" />
        </mxCell>
        <mxCell id="3y8yjmwaF7QzrDSz1sdv-106" value="&lt;font style=&quot;font-size: 12px;&quot;&gt;&lt;font style=&quot;font-size: 12px;&quot; color=&quot;#ffffff&quot;&gt;Models\&lt;/font&gt;&lt;span style=&quot;font-family: ui-monospace, SFMono-Regular, &amp;quot;SF Mono&amp;quot;, Menlo, Consolas, &amp;quot;Liberation Mono&amp;quot;, monospace; font-weight: 400; text-align: start;&quot;&gt;&lt;font color=&quot;#ffff33&quot; style=&quot;&quot;&gt;Alternator&lt;/font&gt;&lt;/span&gt;&lt;span style=&quot;color: rgb(255, 255, 51); font-family: ui-monospace, SFMono-Regular, &amp;quot;SF Mono&amp;quot;, Menlo, Consolas, &amp;quot;Liberation Mono&amp;quot;, monospace; font-weight: 400; text-align: start;&quot;&gt;Automatic&lt;/span&gt;&lt;span style=&quot;font-family: ui-monospace, SFMono-Regular, &amp;quot;SF Mono&amp;quot;, Menlo, Consolas, &amp;quot;Liberation Mono&amp;quot;, monospace; font-weight: 400; text-align: start;&quot;&gt;&lt;font color=&quot;#ffff33&quot; style=&quot;&quot;&gt;ModeSetupModel&lt;/font&gt;&lt;/span&gt;&lt;a style=&quot;box-sizing: border-box; text-decoration-line: none; font-family: -apple-system, &amp;quot;system-ui&amp;quot;, &amp;quot;Segoe UI&amp;quot;, &amp;quot;Noto Sans&amp;quot;, Helvetica, Arial, sans-serif, &amp;quot;Apple Color Emoji&amp;quot;, &amp;quot;Segoe UI Emoji&amp;quot;; font-weight: 400; text-align: start;&quot; href=&quot;https://github.com/MSGequipment/MS005-PC/blob/master/MS005/MS005/Models/AlternatorAutomaticModel.cs&quot; data-turbo-frame=&quot;repo-content-turbo-frame&quot; title=&quot;AlternatorAutomaticModel.cs&quot; class=&quot;js-navigation-open Link--primary&quot;&gt;&lt;font color=&quot;#ffff33&quot;&gt;.cs&lt;/font&gt;&lt;/a&gt;&lt;/font&gt;" style="swimlane;whiteSpace=wrap;html=1;strokeColor=#028090;strokeWidth=2;fontSize=12;fontColor=#E4FDE1;fillColor=#F45B69;" parent="WIyWlLk6GJQsqaUBKTNV-1" vertex="1">
          <mxGeometry x="-15" y="680" width="315" height="75" as="geometry" />
        </mxCell>
        <mxCell id="3y8yjmwaF7QzrDSz1sdv-107" value="&lt;font color=&quot;#ffffff&quot;&gt;Класс логики окна настройки генератора в&lt;br&gt;&amp;nbsp;автоматическом режиме&lt;/font&gt;" style="text;html=1;align=center;verticalAlign=middle;resizable=0;points=[];autosize=1;strokeColor=none;fillColor=none;fontSize=12;fontColor=#E4FDE1;" parent="3y8yjmwaF7QzrDSz1sdv-106" vertex="1">
          <mxGeometry x="22.5" y="27" width="270" height="40" as="geometry" />
        </mxCell>
        <mxCell id="3y8yjmwaF7QzrDSz1sdv-108" style="edgeStyle=orthogonalEdgeStyle;rounded=0;orthogonalLoop=1;jettySize=auto;html=1;exitX=0.75;exitY=1;exitDx=0;exitDy=0;entryX=0.778;entryY=0;entryDx=0;entryDy=0;entryPerimeter=0;strokeColor=#028090;fontColor=#E4FDE1;fillColor=#F45B69;labelBackgroundColor=#114B5F;" parent="WIyWlLk6GJQsqaUBKTNV-1" source="3y8yjmwaF7QzrDSz1sdv-110" target="3y8yjmwaF7QzrDSz1sdv-106" edge="1">
          <mxGeometry relative="1" as="geometry" />
        </mxCell>
        <mxCell id="3y8yjmwaF7QzrDSz1sdv-109" style="edgeStyle=orthogonalEdgeStyle;rounded=0;orthogonalLoop=1;jettySize=auto;html=1;strokeColor=#028090;fontColor=#E4FDE1;fillColor=#F45B69;labelBackgroundColor=#114B5F;" parent="WIyWlLk6GJQsqaUBKTNV-1" source="3y8yjmwaF7QzrDSz1sdv-110" target="3y8yjmwaF7QzrDSz1sdv-113" edge="1">
          <mxGeometry relative="1" as="geometry" />
        </mxCell>
        <mxCell id="N_Y2BpB6N8M6M0zJIPe3-56" style="edgeStyle=orthogonalEdgeStyle;rounded=0;orthogonalLoop=1;jettySize=auto;html=1;exitX=1;exitY=0.5;exitDx=0;exitDy=0;entryX=0;entryY=0.5;entryDx=0;entryDy=0;strokeColor=#028090;fontFamily=Verdana;fontColor=#FFFF33;fillColor=#F45B69;" parent="WIyWlLk6GJQsqaUBKTNV-1" source="3y8yjmwaF7QzrDSz1sdv-110" target="N_Y2BpB6N8M6M0zJIPe3-51" edge="1">
          <mxGeometry relative="1" as="geometry" />
        </mxCell>
        <mxCell id="3y8yjmwaF7QzrDSz1sdv-110" value="ViewModels\&lt;span style=&quot;box-sizing: border-box; font-family: ui-monospace, SFMono-Regular, &amp;quot;SF Mono&amp;quot;, Menlo, Consolas, &amp;quot;Liberation Mono&amp;quot;, monospace; font-weight: 400; text-align: start;&quot; class=&quot;pl-en&quot;&gt;&lt;span style=&quot;box-sizing: border-box;&quot; data-hydro-click-hmac=&quot;5f341075337c455da308e6e12d2586667c5935532e5564b892a86433cfcfb846&quot; data-hydro-click=&quot;{&amp;quot;event_type&amp;quot;:&amp;quot;code_navigation.click_on_symbol&amp;quot;,&amp;quot;payload&amp;quot;:{&amp;quot;action&amp;quot;:&amp;quot;click_on_symbol&amp;quot;,&amp;quot;repository_id&amp;quot;:252561255,&amp;quot;ref&amp;quot;:&amp;quot;master&amp;quot;,&amp;quot;language&amp;quot;:&amp;quot;C#&amp;quot;,&amp;quot;backend&amp;quot;:&amp;quot;ALEPH_FUZZY&amp;quot;,&amp;quot;code_nav_context&amp;quot;:&amp;quot;BLOB_VIEW&amp;quot;,&amp;quot;retry_backend&amp;quot;:&amp;quot;&amp;quot;,&amp;quot;cross_repo_results_included&amp;quot;:&amp;quot;CROSS_REPO_ENABLED&amp;quot;,&amp;quot;in_repo_result_count&amp;quot;:1,&amp;quot;cross_repo_result_count&amp;quot;:0,&amp;quot;originating_url&amp;quot;:&amp;quot;https://github.com/MSGequipment/MS005-PC/find-definition?q=AlternatorManualModeSetupViewModel&amp;amp;blob_path=MS005%2FMS005%2FView+Models%2FAlternatorManualModeSetupViewModel.cs&amp;amp;ref=master&amp;amp;language=C%23&amp;amp;row=14&amp;amp;col=10&amp;amp;code_nav_context=BLOB_VIEW&amp;quot;,&amp;quot;user_id&amp;quot;:33692627}}&quot; class=&quot;pl-token&quot;&gt;&lt;font style=&quot;&quot; color=&quot;#ffff33&quot;&gt;Alternator&lt;/font&gt;&lt;span style=&quot;color: rgb(255, 255, 51);&quot;&gt;Automatic&lt;/span&gt;&lt;font style=&quot;&quot; color=&quot;#ffff33&quot;&gt;ModeSetupViewModel&lt;/font&gt;&lt;/span&gt;&lt;/span&gt;&lt;span style=&quot;font-family: ui-monospace, SFMono-Regular, &amp;quot;SF Mono&amp;quot;, Menlo, Consolas, &amp;quot;Liberation Mono&amp;quot;, monospace; font-weight: 400; text-align: start;&quot;&gt;&lt;font style=&quot;&quot; color=&quot;#ffff33&quot;&gt;.cs&lt;/font&gt;&lt;/span&gt;" style="swimlane;whiteSpace=wrap;html=1;labelBackgroundColor=none;strokeColor=#028090;strokeWidth=2;fontSize=12;fontColor=#E4FDE1;fillColor=#F45B69;" parent="WIyWlLk6GJQsqaUBKTNV-1" vertex="1">
          <mxGeometry x="-50" y="578" width="385" height="76" as="geometry">
            <mxRectangle x="-480" y="450" width="270" height="30" as="alternateBounds" />
          </mxGeometry>
        </mxCell>
        <mxCell id="3y8yjmwaF7QzrDSz1sdv-111" value="View Model - обмен данными с моделью и формой" style="text;html=1;align=center;verticalAlign=middle;resizable=0;points=[];autosize=1;strokeColor=none;fillColor=none;fontColor=#E4FDE1;" parent="3y8yjmwaF7QzrDSz1sdv-110" vertex="1">
          <mxGeometry x="-5" y="30" width="310" height="30" as="geometry" />
        </mxCell>
        <mxCell id="3y8yjmwaF7QzrDSz1sdv-112" style="edgeStyle=orthogonalEdgeStyle;rounded=0;orthogonalLoop=1;jettySize=auto;html=1;exitX=0.75;exitY=1;exitDx=0;exitDy=0;entryX=0.75;entryY=0;entryDx=0;entryDy=0;strokeColor=#028090;fontColor=#E4FDE1;fillColor=#F45B69;labelBackgroundColor=#114B5F;" parent="WIyWlLk6GJQsqaUBKTNV-1" source="3y8yjmwaF7QzrDSz1sdv-113" target="3y8yjmwaF7QzrDSz1sdv-110" edge="1">
          <mxGeometry relative="1" as="geometry" />
        </mxCell>
        <mxCell id="3y8yjmwaF7QzrDSz1sdv-113" value="Views\&lt;span style=&quot;font-family: ui-monospace, SFMono-Regular, &amp;quot;SF Mono&amp;quot;, Menlo, Consolas, &amp;quot;Liberation Mono&amp;quot;, monospace; font-weight: 400; text-align: start;&quot;&gt;&lt;font style=&quot;&quot; color=&quot;#ffff33&quot;&gt;AlternatorAutomaticModeSetupView&lt;/font&gt;&lt;/span&gt;&lt;span style=&quot;font-family: ui-monospace, SFMono-Regular, &amp;quot;SF Mono&amp;quot;, Menlo, Consolas, &amp;quot;Liberation Mono&amp;quot;, monospace; font-weight: 400; text-align: start;&quot;&gt;&lt;font style=&quot;&quot; color=&quot;#ffff33&quot;&gt;.xaml&lt;/font&gt;&lt;/span&gt;" style="swimlane;whiteSpace=wrap;html=1;labelBackgroundColor=none;strokeColor=#028090;strokeWidth=2;fontSize=12;fontColor=#E4FDE1;fillColor=#F45B69;" parent="WIyWlLk6GJQsqaUBKTNV-1" vertex="1">
          <mxGeometry x="-17.5" y="480" width="320" height="76" as="geometry">
            <mxRectangle x="-480" y="450" width="270" height="30" as="alternateBounds" />
          </mxGeometry>
        </mxCell>
        <mxCell id="3y8yjmwaF7QzrDSz1sdv-114" value="Форма экрана настройки генератора в &lt;br&gt;автоматическом режиме" style="text;html=1;align=center;verticalAlign=middle;resizable=0;points=[];autosize=1;strokeColor=none;fillColor=none;fontColor=#E4FDE1;" parent="3y8yjmwaF7QzrDSz1sdv-113" vertex="1">
          <mxGeometry x="37.5" y="25" width="240" height="40" as="geometry" />
        </mxCell>
        <mxCell id="3y8yjmwaF7QzrDSz1sdv-115" style="edgeStyle=orthogonalEdgeStyle;rounded=0;orthogonalLoop=1;jettySize=auto;html=1;entryX=0;entryY=0.5;entryDx=0;entryDy=0;strokeColor=#028090;fontColor=#E4FDE1;fillColor=#F45B69;labelBackgroundColor=#114B5F;" parent="WIyWlLk6GJQsqaUBKTNV-1" source="3y8yjmwaF7QzrDSz1sdv-22" target="3y8yjmwaF7QzrDSz1sdv-106" edge="1">
          <mxGeometry relative="1" as="geometry">
            <Array as="points">
              <mxPoint x="-90" y="565" />
              <mxPoint x="-90" y="717" />
            </Array>
          </mxGeometry>
        </mxCell>
        <mxCell id="N_Y2BpB6N8M6M0zJIPe3-0" style="edgeStyle=orthogonalEdgeStyle;rounded=0;orthogonalLoop=1;jettySize=auto;html=1;entryX=0.5;entryY=1;entryDx=0;entryDy=0;strokeColor=#028090;fontSize=12;fontColor=#E4FDE1;fillColor=#F45B69;labelBackgroundColor=#114B5F;" parent="WIyWlLk6GJQsqaUBKTNV-1" source="N_Y2BpB6N8M6M0zJIPe3-1" target="N_Y2BpB6N8M6M0zJIPe3-5" edge="1">
          <mxGeometry relative="1" as="geometry" />
        </mxCell>
        <mxCell id="N_Y2BpB6N8M6M0zJIPe3-1" value="&lt;font style=&quot;font-size: 12px;&quot;&gt;&lt;font color=&quot;#ffffff&quot; style=&quot;font-size: 12px;&quot;&gt;Models\&lt;/font&gt;&lt;font color=&quot;#ffff33&quot; style=&quot;font-size: 12px;&quot;&gt;StarterManual&lt;/font&gt;&lt;span style=&quot;font-family: ui-monospace, SFMono-Regular, &amp;quot;SF Mono&amp;quot;, Menlo, Consolas, &amp;quot;Liberation Mono&amp;quot;, monospace; font-weight: 400; text-align: start;&quot;&gt;&lt;font style=&quot;&quot; color=&quot;#ffff33&quot;&gt;ModeSetupModel&lt;/font&gt;&lt;/span&gt;&lt;a class=&quot;js-navigation-open Link--primary&quot; title=&quot;AlternatorAutomaticModel.cs&quot; data-turbo-frame=&quot;repo-content-turbo-frame&quot; href=&quot;https://github.com/MSGequipment/MS005-PC/blob/master/MS005/MS005/Models/AlternatorAutomaticModel.cs&quot; style=&quot;box-sizing: border-box; text-decoration-line: none; font-family: -apple-system, &amp;quot;system-ui&amp;quot;, &amp;quot;Segoe UI&amp;quot;, &amp;quot;Noto Sans&amp;quot;, Helvetica, Arial, sans-serif, &amp;quot;Apple Color Emoji&amp;quot;, &amp;quot;Segoe UI Emoji&amp;quot;; font-weight: 400; text-align: start;&quot;&gt;&lt;font color=&quot;#ffff33&quot;&gt;.cs&lt;/font&gt;&lt;/a&gt;&lt;/font&gt;" style="swimlane;whiteSpace=wrap;html=1;strokeColor=#028090;strokeWidth=2;fontSize=12;fontColor=#E4FDE1;fillColor=#F45B69;" parent="WIyWlLk6GJQsqaUBKTNV-1" vertex="1">
          <mxGeometry x="-15" y="1030" width="315" height="75" as="geometry" />
        </mxCell>
        <mxCell id="N_Y2BpB6N8M6M0zJIPe3-2" value="&lt;font color=&quot;#ffffff&quot;&gt;Класс логики окна настройки стартера&lt;/font&gt;" style="text;html=1;align=center;verticalAlign=middle;resizable=0;points=[];autosize=1;strokeColor=none;fillColor=none;fontSize=12;fontColor=#E4FDE1;" parent="N_Y2BpB6N8M6M0zJIPe3-1" vertex="1">
          <mxGeometry x="37.5" y="32" width="240" height="30" as="geometry" />
        </mxCell>
        <mxCell id="N_Y2BpB6N8M6M0zJIPe3-3" style="edgeStyle=orthogonalEdgeStyle;rounded=0;orthogonalLoop=1;jettySize=auto;html=1;exitX=0.75;exitY=1;exitDx=0;exitDy=0;entryX=0.778;entryY=0;entryDx=0;entryDy=0;entryPerimeter=0;strokeColor=#028090;fontColor=#E4FDE1;fillColor=#F45B69;labelBackgroundColor=#114B5F;" parent="WIyWlLk6GJQsqaUBKTNV-1" source="N_Y2BpB6N8M6M0zJIPe3-5" target="N_Y2BpB6N8M6M0zJIPe3-1" edge="1">
          <mxGeometry relative="1" as="geometry" />
        </mxCell>
        <mxCell id="N_Y2BpB6N8M6M0zJIPe3-4" style="edgeStyle=orthogonalEdgeStyle;rounded=0;orthogonalLoop=1;jettySize=auto;html=1;strokeColor=#028090;fontColor=#E4FDE1;fillColor=#F45B69;labelBackgroundColor=#114B5F;" parent="WIyWlLk6GJQsqaUBKTNV-1" source="N_Y2BpB6N8M6M0zJIPe3-5" target="N_Y2BpB6N8M6M0zJIPe3-8" edge="1">
          <mxGeometry relative="1" as="geometry" />
        </mxCell>
        <mxCell id="N_Y2BpB6N8M6M0zJIPe3-70" style="edgeStyle=orthogonalEdgeStyle;rounded=0;orthogonalLoop=1;jettySize=auto;html=1;entryX=0;entryY=0.5;entryDx=0;entryDy=0;strokeColor=#028090;fontFamily=Verdana;fontColor=#FFFF33;fillColor=#F45B69;" parent="WIyWlLk6GJQsqaUBKTNV-1" source="N_Y2BpB6N8M6M0zJIPe3-5" target="N_Y2BpB6N8M6M0zJIPe3-62" edge="1">
          <mxGeometry relative="1" as="geometry" />
        </mxCell>
        <mxCell id="N_Y2BpB6N8M6M0zJIPe3-5" value="ViewModels\&lt;span style=&quot;box-sizing: border-box; font-family: ui-monospace, SFMono-Regular, &amp;quot;SF Mono&amp;quot;, Menlo, Consolas, &amp;quot;Liberation Mono&amp;quot;, monospace; font-weight: 400; text-align: start;&quot; class=&quot;pl-en&quot;&gt;&lt;span style=&quot;box-sizing: border-box;&quot; data-hydro-click-hmac=&quot;5f341075337c455da308e6e12d2586667c5935532e5564b892a86433cfcfb846&quot; data-hydro-click=&quot;{&amp;quot;event_type&amp;quot;:&amp;quot;code_navigation.click_on_symbol&amp;quot;,&amp;quot;payload&amp;quot;:{&amp;quot;action&amp;quot;:&amp;quot;click_on_symbol&amp;quot;,&amp;quot;repository_id&amp;quot;:252561255,&amp;quot;ref&amp;quot;:&amp;quot;master&amp;quot;,&amp;quot;language&amp;quot;:&amp;quot;C#&amp;quot;,&amp;quot;backend&amp;quot;:&amp;quot;ALEPH_FUZZY&amp;quot;,&amp;quot;code_nav_context&amp;quot;:&amp;quot;BLOB_VIEW&amp;quot;,&amp;quot;retry_backend&amp;quot;:&amp;quot;&amp;quot;,&amp;quot;cross_repo_results_included&amp;quot;:&amp;quot;CROSS_REPO_ENABLED&amp;quot;,&amp;quot;in_repo_result_count&amp;quot;:1,&amp;quot;cross_repo_result_count&amp;quot;:0,&amp;quot;originating_url&amp;quot;:&amp;quot;https://github.com/MSGequipment/MS005-PC/find-definition?q=AlternatorManualModeSetupViewModel&amp;amp;blob_path=MS005%2FMS005%2FView+Models%2FAlternatorManualModeSetupViewModel.cs&amp;amp;ref=master&amp;amp;language=C%23&amp;amp;row=14&amp;amp;col=10&amp;amp;code_nav_context=BLOB_VIEW&amp;quot;,&amp;quot;user_id&amp;quot;:33692627}}&quot; class=&quot;pl-token&quot;&gt;&lt;span style=&quot;color: rgb(255, 255, 51); font-family: Helvetica; font-weight: 700; text-align: center;&quot;&gt;StarterManual&lt;/span&gt;&lt;font style=&quot;&quot; color=&quot;#ffff33&quot;&gt;ModeSetupViewModel&lt;/font&gt;&lt;/span&gt;&lt;/span&gt;&lt;span style=&quot;font-family: ui-monospace, SFMono-Regular, &amp;quot;SF Mono&amp;quot;, Menlo, Consolas, &amp;quot;Liberation Mono&amp;quot;, monospace; font-weight: 400; text-align: start;&quot;&gt;&lt;font style=&quot;&quot; color=&quot;#ffff33&quot;&gt;.cs&lt;/font&gt;&lt;/span&gt;" style="swimlane;whiteSpace=wrap;html=1;labelBackgroundColor=none;strokeColor=#028090;strokeWidth=2;fontSize=12;fontColor=#E4FDE1;fillColor=#F45B69;" parent="WIyWlLk6GJQsqaUBKTNV-1" vertex="1">
          <mxGeometry x="-50" y="928" width="385" height="76" as="geometry">
            <mxRectangle x="-480" y="450" width="270" height="30" as="alternateBounds" />
          </mxGeometry>
        </mxCell>
        <mxCell id="N_Y2BpB6N8M6M0zJIPe3-6" value="View Model - обмен данными с моделью и формой" style="text;html=1;align=center;verticalAlign=middle;resizable=0;points=[];autosize=1;strokeColor=none;fillColor=none;fontColor=#E4FDE1;" parent="N_Y2BpB6N8M6M0zJIPe3-5" vertex="1">
          <mxGeometry x="-5" y="30" width="310" height="30" as="geometry" />
        </mxCell>
        <mxCell id="N_Y2BpB6N8M6M0zJIPe3-7" style="edgeStyle=orthogonalEdgeStyle;rounded=0;orthogonalLoop=1;jettySize=auto;html=1;exitX=0.75;exitY=1;exitDx=0;exitDy=0;entryX=0.75;entryY=0;entryDx=0;entryDy=0;strokeColor=#028090;fontColor=#E4FDE1;fillColor=#F45B69;labelBackgroundColor=#114B5F;" parent="WIyWlLk6GJQsqaUBKTNV-1" source="N_Y2BpB6N8M6M0zJIPe3-8" target="N_Y2BpB6N8M6M0zJIPe3-5" edge="1">
          <mxGeometry relative="1" as="geometry" />
        </mxCell>
        <mxCell id="N_Y2BpB6N8M6M0zJIPe3-8" value="Views\&lt;span style=&quot;color: rgb(255, 255, 51);&quot;&gt;StarterManual&lt;/span&gt;&lt;span style=&quot;font-family: ui-monospace, SFMono-Regular, &amp;quot;SF Mono&amp;quot;, Menlo, Consolas, &amp;quot;Liberation Mono&amp;quot;, monospace; font-weight: 400; text-align: start;&quot;&gt;&lt;font style=&quot;&quot; color=&quot;#ffff33&quot;&gt;ModeSetupView&lt;/font&gt;&lt;/span&gt;&lt;span style=&quot;font-family: ui-monospace, SFMono-Regular, &amp;quot;SF Mono&amp;quot;, Menlo, Consolas, &amp;quot;Liberation Mono&amp;quot;, monospace; font-weight: 400; text-align: start;&quot;&gt;&lt;font style=&quot;&quot; color=&quot;#ffff33&quot;&gt;.xaml&lt;/font&gt;&lt;/span&gt;" style="swimlane;whiteSpace=wrap;html=1;labelBackgroundColor=none;strokeColor=#028090;strokeWidth=2;fontSize=12;fontColor=#E4FDE1;fillColor=#F45B69;" parent="WIyWlLk6GJQsqaUBKTNV-1" vertex="1">
          <mxGeometry x="-17.5" y="830" width="320" height="76" as="geometry">
            <mxRectangle x="-480" y="450" width="270" height="30" as="alternateBounds" />
          </mxGeometry>
        </mxCell>
        <mxCell id="N_Y2BpB6N8M6M0zJIPe3-9" value="Форма экрана настройки стартера" style="text;html=1;align=center;verticalAlign=middle;resizable=0;points=[];autosize=1;strokeColor=none;fillColor=none;fontColor=#E4FDE1;" parent="N_Y2BpB6N8M6M0zJIPe3-8" vertex="1">
          <mxGeometry x="47.5" y="30" width="220" height="30" as="geometry" />
        </mxCell>
        <mxCell id="N_Y2BpB6N8M6M0zJIPe3-10" style="edgeStyle=orthogonalEdgeStyle;rounded=0;orthogonalLoop=1;jettySize=auto;html=1;entryX=0;entryY=0.5;entryDx=0;entryDy=0;labelBackgroundColor=#114B5F;strokeColor=#028090;fontColor=#E4FDE1;" parent="WIyWlLk6GJQsqaUBKTNV-1" source="3y8yjmwaF7QzrDSz1sdv-22" target="N_Y2BpB6N8M6M0zJIPe3-1" edge="1">
          <mxGeometry relative="1" as="geometry">
            <Array as="points">
              <mxPoint x="-90" y="565" />
              <mxPoint x="-90" y="1038" />
            </Array>
          </mxGeometry>
        </mxCell>
        <mxCell id="N_Y2BpB6N8M6M0zJIPe3-21" style="edgeStyle=orthogonalEdgeStyle;rounded=0;orthogonalLoop=1;jettySize=auto;html=1;entryX=0.5;entryY=1;entryDx=0;entryDy=0;strokeColor=#028090;fontSize=12;fontColor=#E4FDE1;fillColor=#F45B69;labelBackgroundColor=#114B5F;" parent="WIyWlLk6GJQsqaUBKTNV-1" source="N_Y2BpB6N8M6M0zJIPe3-22" target="N_Y2BpB6N8M6M0zJIPe3-26" edge="1">
          <mxGeometry relative="1" as="geometry" />
        </mxCell>
        <mxCell id="N_Y2BpB6N8M6M0zJIPe3-22" value="&lt;font style=&quot;font-size: 12px;&quot;&gt;&lt;font color=&quot;#ffffff&quot; style=&quot;font-size: 12px;&quot;&gt;Models\&lt;/font&gt;&lt;font color=&quot;#ffff33&quot; style=&quot;font-size: 12px;&quot;&gt;MainSettings&lt;/font&gt;&lt;span style=&quot;font-family: ui-monospace, SFMono-Regular, &amp;quot;SF Mono&amp;quot;, Menlo, Consolas, &amp;quot;Liberation Mono&amp;quot;, monospace; font-weight: 400; text-align: start;&quot;&gt;&lt;font style=&quot;&quot; color=&quot;#ffff33&quot;&gt;Model&lt;/font&gt;&lt;/span&gt;&lt;a class=&quot;js-navigation-open Link--primary&quot; title=&quot;AlternatorAutomaticModel.cs&quot; data-turbo-frame=&quot;repo-content-turbo-frame&quot; href=&quot;https://github.com/MSGequipment/MS005-PC/blob/master/MS005/MS005/Models/AlternatorAutomaticModel.cs&quot; style=&quot;box-sizing: border-box; text-decoration-line: none; font-family: -apple-system, &amp;quot;system-ui&amp;quot;, &amp;quot;Segoe UI&amp;quot;, &amp;quot;Noto Sans&amp;quot;, Helvetica, Arial, sans-serif, &amp;quot;Apple Color Emoji&amp;quot;, &amp;quot;Segoe UI Emoji&amp;quot;; font-weight: 400; text-align: start;&quot;&gt;&lt;font color=&quot;#ffff33&quot;&gt;.cs&lt;/font&gt;&lt;/a&gt;&lt;/font&gt;" style="swimlane;whiteSpace=wrap;html=1;strokeColor=#028090;strokeWidth=2;fontSize=12;fontColor=#E4FDE1;fillColor=#F45B69;" parent="WIyWlLk6GJQsqaUBKTNV-1" vertex="1">
          <mxGeometry x="-20" y="1390" width="315" height="75" as="geometry" />
        </mxCell>
        <mxCell id="N_Y2BpB6N8M6M0zJIPe3-23" value="&lt;font color=&quot;#ffffff&quot;&gt;Класс логики окна настроек&lt;/font&gt;" style="text;html=1;align=center;verticalAlign=middle;resizable=0;points=[];autosize=1;strokeColor=none;fillColor=none;fontSize=12;fontColor=#E4FDE1;" parent="N_Y2BpB6N8M6M0zJIPe3-22" vertex="1">
          <mxGeometry x="67.5" y="32" width="180" height="30" as="geometry" />
        </mxCell>
        <mxCell id="N_Y2BpB6N8M6M0zJIPe3-24" style="edgeStyle=orthogonalEdgeStyle;rounded=0;orthogonalLoop=1;jettySize=auto;html=1;exitX=0.75;exitY=1;exitDx=0;exitDy=0;entryX=0.778;entryY=0;entryDx=0;entryDy=0;entryPerimeter=0;strokeColor=#028090;fontColor=#E4FDE1;fillColor=#F45B69;labelBackgroundColor=#114B5F;" parent="WIyWlLk6GJQsqaUBKTNV-1" source="N_Y2BpB6N8M6M0zJIPe3-26" target="N_Y2BpB6N8M6M0zJIPe3-22" edge="1">
          <mxGeometry relative="1" as="geometry" />
        </mxCell>
        <mxCell id="N_Y2BpB6N8M6M0zJIPe3-25" style="edgeStyle=orthogonalEdgeStyle;rounded=0;orthogonalLoop=1;jettySize=auto;html=1;strokeColor=#028090;fontColor=#E4FDE1;fillColor=#F45B69;labelBackgroundColor=#114B5F;" parent="WIyWlLk6GJQsqaUBKTNV-1" source="N_Y2BpB6N8M6M0zJIPe3-26" target="N_Y2BpB6N8M6M0zJIPe3-29" edge="1">
          <mxGeometry relative="1" as="geometry" />
        </mxCell>
        <mxCell id="N_Y2BpB6N8M6M0zJIPe3-26" value="ViewModels\&lt;font color=&quot;#ffff33&quot;&gt;MainSettings&lt;/font&gt;&lt;span style=&quot;box-sizing: border-box; font-family: ui-monospace, SFMono-Regular, &amp;quot;SF Mono&amp;quot;, Menlo, Consolas, &amp;quot;Liberation Mono&amp;quot;, monospace; font-weight: 400; text-align: start;&quot; class=&quot;pl-en&quot;&gt;&lt;span style=&quot;box-sizing: border-box;&quot; data-hydro-click-hmac=&quot;5f341075337c455da308e6e12d2586667c5935532e5564b892a86433cfcfb846&quot; data-hydro-click=&quot;{&amp;quot;event_type&amp;quot;:&amp;quot;code_navigation.click_on_symbol&amp;quot;,&amp;quot;payload&amp;quot;:{&amp;quot;action&amp;quot;:&amp;quot;click_on_symbol&amp;quot;,&amp;quot;repository_id&amp;quot;:252561255,&amp;quot;ref&amp;quot;:&amp;quot;master&amp;quot;,&amp;quot;language&amp;quot;:&amp;quot;C#&amp;quot;,&amp;quot;backend&amp;quot;:&amp;quot;ALEPH_FUZZY&amp;quot;,&amp;quot;code_nav_context&amp;quot;:&amp;quot;BLOB_VIEW&amp;quot;,&amp;quot;retry_backend&amp;quot;:&amp;quot;&amp;quot;,&amp;quot;cross_repo_results_included&amp;quot;:&amp;quot;CROSS_REPO_ENABLED&amp;quot;,&amp;quot;in_repo_result_count&amp;quot;:1,&amp;quot;cross_repo_result_count&amp;quot;:0,&amp;quot;originating_url&amp;quot;:&amp;quot;https://github.com/MSGequipment/MS005-PC/find-definition?q=AlternatorManualModeSetupViewModel&amp;amp;blob_path=MS005%2FMS005%2FView+Models%2FAlternatorManualModeSetupViewModel.cs&amp;amp;ref=master&amp;amp;language=C%23&amp;amp;row=14&amp;amp;col=10&amp;amp;code_nav_context=BLOB_VIEW&amp;quot;,&amp;quot;user_id&amp;quot;:33692627}}&quot; class=&quot;pl-token&quot;&gt;&lt;font style=&quot;&quot; color=&quot;#ffff33&quot;&gt;ViewModel&lt;/font&gt;&lt;/span&gt;&lt;/span&gt;&lt;span style=&quot;font-family: ui-monospace, SFMono-Regular, &amp;quot;SF Mono&amp;quot;, Menlo, Consolas, &amp;quot;Liberation Mono&amp;quot;, monospace; font-weight: 400; text-align: start;&quot;&gt;&lt;font style=&quot;&quot; color=&quot;#ffff33&quot;&gt;.cs&lt;/font&gt;&lt;/span&gt;" style="swimlane;whiteSpace=wrap;html=1;labelBackgroundColor=none;strokeColor=#028090;strokeWidth=2;fontSize=12;fontColor=#E4FDE1;fillColor=#F45B69;" parent="WIyWlLk6GJQsqaUBKTNV-1" vertex="1">
          <mxGeometry x="-55" y="1288" width="385" height="76" as="geometry">
            <mxRectangle x="-480" y="450" width="270" height="30" as="alternateBounds" />
          </mxGeometry>
        </mxCell>
        <mxCell id="N_Y2BpB6N8M6M0zJIPe3-27" value="View Model - обмен данными с моделью и формой" style="text;html=1;align=center;verticalAlign=middle;resizable=0;points=[];autosize=1;strokeColor=none;fillColor=none;fontColor=#E4FDE1;" parent="N_Y2BpB6N8M6M0zJIPe3-26" vertex="1">
          <mxGeometry x="30" y="30" width="310" height="30" as="geometry" />
        </mxCell>
        <mxCell id="N_Y2BpB6N8M6M0zJIPe3-28" style="edgeStyle=orthogonalEdgeStyle;rounded=0;orthogonalLoop=1;jettySize=auto;html=1;exitX=0.75;exitY=1;exitDx=0;exitDy=0;entryX=0.75;entryY=0;entryDx=0;entryDy=0;strokeColor=#028090;fontColor=#E4FDE1;fillColor=#F45B69;labelBackgroundColor=#114B5F;" parent="WIyWlLk6GJQsqaUBKTNV-1" source="N_Y2BpB6N8M6M0zJIPe3-29" target="N_Y2BpB6N8M6M0zJIPe3-26" edge="1">
          <mxGeometry relative="1" as="geometry" />
        </mxCell>
        <mxCell id="N_Y2BpB6N8M6M0zJIPe3-29" value="Views\&lt;font color=&quot;#ffff33&quot;&gt;MainSettingsView&lt;/font&gt;&lt;span style=&quot;font-family: ui-monospace, SFMono-Regular, &amp;quot;SF Mono&amp;quot;, Menlo, Consolas, &amp;quot;Liberation Mono&amp;quot;, monospace; font-weight: 400; text-align: start;&quot;&gt;&lt;font style=&quot;&quot; color=&quot;#ffff33&quot;&gt;View&lt;/font&gt;&lt;/span&gt;&lt;span style=&quot;font-family: ui-monospace, SFMono-Regular, &amp;quot;SF Mono&amp;quot;, Menlo, Consolas, &amp;quot;Liberation Mono&amp;quot;, monospace; font-weight: 400; text-align: start;&quot;&gt;&lt;font style=&quot;&quot; color=&quot;#ffff33&quot;&gt;.xaml&lt;/font&gt;&lt;/span&gt;" style="swimlane;whiteSpace=wrap;html=1;labelBackgroundColor=none;strokeColor=#028090;strokeWidth=2;fontSize=12;fontColor=#E4FDE1;fillColor=#F45B69;" parent="WIyWlLk6GJQsqaUBKTNV-1" vertex="1">
          <mxGeometry x="-22.5" y="1190" width="320" height="76" as="geometry">
            <mxRectangle x="-480" y="450" width="270" height="30" as="alternateBounds" />
          </mxGeometry>
        </mxCell>
        <mxCell id="N_Y2BpB6N8M6M0zJIPe3-30" value="Форма экрана настроек" style="text;html=1;align=center;verticalAlign=middle;resizable=0;points=[];autosize=1;strokeColor=none;fillColor=none;fontColor=#E4FDE1;" parent="N_Y2BpB6N8M6M0zJIPe3-29" vertex="1">
          <mxGeometry x="77.5" y="30" width="160" height="30" as="geometry" />
        </mxCell>
        <mxCell id="N_Y2BpB6N8M6M0zJIPe3-32" style="edgeStyle=orthogonalEdgeStyle;rounded=0;orthogonalLoop=1;jettySize=auto;html=1;entryX=0.5;entryY=1;entryDx=0;entryDy=0;strokeColor=#028090;fontSize=12;fontColor=#E4FDE1;fillColor=#F45B69;labelBackgroundColor=#114B5F;" parent="WIyWlLk6GJQsqaUBKTNV-1" source="N_Y2BpB6N8M6M0zJIPe3-33" target="N_Y2BpB6N8M6M0zJIPe3-37" edge="1">
          <mxGeometry relative="1" as="geometry" />
        </mxCell>
        <mxCell id="N_Y2BpB6N8M6M0zJIPe3-33" value="&lt;font style=&quot;font-size: 12px;&quot;&gt;&lt;font style=&quot;font-size: 12px;&quot; color=&quot;#ffffff&quot;&gt;Models\&lt;/font&gt;&lt;span style=&quot;font-family: ui-monospace, SFMono-Regular, &amp;quot;SF Mono&amp;quot;, Menlo, Consolas, &amp;quot;Liberation Mono&amp;quot;, monospace; font-weight: 400; text-align: start;&quot;&gt;&lt;font color=&quot;#ffff33&quot; style=&quot;&quot;&gt;AlternatorManualModeModel&lt;/font&gt;&lt;/span&gt;&lt;a style=&quot;box-sizing: border-box; text-decoration-line: none; font-family: -apple-system, &amp;quot;system-ui&amp;quot;, &amp;quot;Segoe UI&amp;quot;, &amp;quot;Noto Sans&amp;quot;, Helvetica, Arial, sans-serif, &amp;quot;Apple Color Emoji&amp;quot;, &amp;quot;Segoe UI Emoji&amp;quot;; font-weight: 400; text-align: start;&quot; href=&quot;https://github.com/MSGequipment/MS005-PC/blob/master/MS005/MS005/Models/AlternatorAutomaticModel.cs&quot; data-turbo-frame=&quot;repo-content-turbo-frame&quot; title=&quot;AlternatorAutomaticModel.cs&quot; class=&quot;js-navigation-open Link--primary&quot;&gt;&lt;font color=&quot;#ffff33&quot;&gt;.cs&lt;/font&gt;&lt;/a&gt;&lt;/font&gt;" style="swimlane;whiteSpace=wrap;html=1;strokeColor=#028090;strokeWidth=2;fontSize=12;fontColor=#E4FDE1;fillColor=#F45B69;" parent="WIyWlLk6GJQsqaUBKTNV-1" vertex="1">
          <mxGeometry x="465" y="310" width="315" height="75" as="geometry" />
        </mxCell>
        <mxCell id="N_Y2BpB6N8M6M0zJIPe3-34" value="&lt;font color=&quot;#ffffff&quot;&gt;Класс логики окна ручной проверки генератора&lt;/font&gt;" style="text;html=1;align=center;verticalAlign=middle;resizable=0;points=[];autosize=1;strokeColor=none;fillColor=none;fontSize=12;fontColor=#E4FDE1;" parent="N_Y2BpB6N8M6M0zJIPe3-33" vertex="1">
          <mxGeometry x="12.5" y="32" width="290" height="30" as="geometry" />
        </mxCell>
        <mxCell id="N_Y2BpB6N8M6M0zJIPe3-35" style="edgeStyle=orthogonalEdgeStyle;rounded=0;orthogonalLoop=1;jettySize=auto;html=1;exitX=0.75;exitY=1;exitDx=0;exitDy=0;entryX=0.778;entryY=0;entryDx=0;entryDy=0;entryPerimeter=0;strokeColor=#028090;fontColor=#E4FDE1;fillColor=#F45B69;labelBackgroundColor=#114B5F;" parent="WIyWlLk6GJQsqaUBKTNV-1" source="N_Y2BpB6N8M6M0zJIPe3-37" target="N_Y2BpB6N8M6M0zJIPe3-33" edge="1">
          <mxGeometry relative="1" as="geometry" />
        </mxCell>
        <mxCell id="N_Y2BpB6N8M6M0zJIPe3-36" style="edgeStyle=orthogonalEdgeStyle;rounded=0;orthogonalLoop=1;jettySize=auto;html=1;strokeColor=#028090;fontColor=#E4FDE1;fillColor=#F45B69;labelBackgroundColor=#114B5F;" parent="WIyWlLk6GJQsqaUBKTNV-1" source="N_Y2BpB6N8M6M0zJIPe3-37" target="N_Y2BpB6N8M6M0zJIPe3-40" edge="1">
          <mxGeometry relative="1" as="geometry" />
        </mxCell>
        <mxCell id="N_Y2BpB6N8M6M0zJIPe3-37" value="ViewModels\&lt;span style=&quot;box-sizing: border-box; font-family: ui-monospace, SFMono-Regular, &amp;quot;SF Mono&amp;quot;, Menlo, Consolas, &amp;quot;Liberation Mono&amp;quot;, monospace; font-weight: 400; text-align: start;&quot; class=&quot;pl-en&quot;&gt;&lt;span style=&quot;box-sizing: border-box;&quot; data-hydro-click-hmac=&quot;5f341075337c455da308e6e12d2586667c5935532e5564b892a86433cfcfb846&quot; data-hydro-click=&quot;{&amp;quot;event_type&amp;quot;:&amp;quot;code_navigation.click_on_symbol&amp;quot;,&amp;quot;payload&amp;quot;:{&amp;quot;action&amp;quot;:&amp;quot;click_on_symbol&amp;quot;,&amp;quot;repository_id&amp;quot;:252561255,&amp;quot;ref&amp;quot;:&amp;quot;master&amp;quot;,&amp;quot;language&amp;quot;:&amp;quot;C#&amp;quot;,&amp;quot;backend&amp;quot;:&amp;quot;ALEPH_FUZZY&amp;quot;,&amp;quot;code_nav_context&amp;quot;:&amp;quot;BLOB_VIEW&amp;quot;,&amp;quot;retry_backend&amp;quot;:&amp;quot;&amp;quot;,&amp;quot;cross_repo_results_included&amp;quot;:&amp;quot;CROSS_REPO_ENABLED&amp;quot;,&amp;quot;in_repo_result_count&amp;quot;:1,&amp;quot;cross_repo_result_count&amp;quot;:0,&amp;quot;originating_url&amp;quot;:&amp;quot;https://github.com/MSGequipment/MS005-PC/find-definition?q=AlternatorManualModeSetupViewModel&amp;amp;blob_path=MS005%2FMS005%2FView+Models%2FAlternatorManualModeSetupViewModel.cs&amp;amp;ref=master&amp;amp;language=C%23&amp;amp;row=14&amp;amp;col=10&amp;amp;code_nav_context=BLOB_VIEW&amp;quot;,&amp;quot;user_id&amp;quot;:33692627}}&quot; class=&quot;pl-token&quot;&gt;&lt;font style=&quot;&quot; color=&quot;#ffff33&quot;&gt;AlternatorManualModeViewModel&lt;/font&gt;&lt;/span&gt;&lt;/span&gt;&lt;span style=&quot;font-family: ui-monospace, SFMono-Regular, &amp;quot;SF Mono&amp;quot;, Menlo, Consolas, &amp;quot;Liberation Mono&amp;quot;, monospace; font-weight: 400; text-align: start;&quot;&gt;&lt;font style=&quot;&quot; color=&quot;#ffff33&quot;&gt;.cs&lt;/font&gt;&lt;/span&gt;" style="swimlane;whiteSpace=wrap;html=1;labelBackgroundColor=none;strokeColor=#028090;strokeWidth=2;fontSize=12;fontColor=#E4FDE1;fillColor=#F45B69;" parent="WIyWlLk6GJQsqaUBKTNV-1" vertex="1">
          <mxGeometry x="430" y="208" width="385" height="76" as="geometry">
            <mxRectangle x="-480" y="450" width="270" height="30" as="alternateBounds" />
          </mxGeometry>
        </mxCell>
        <mxCell id="N_Y2BpB6N8M6M0zJIPe3-38" value="View Model - обмен данными с моделью и формой" style="text;html=1;align=center;verticalAlign=middle;resizable=0;points=[];autosize=1;strokeColor=none;fillColor=none;fontColor=#E4FDE1;" parent="N_Y2BpB6N8M6M0zJIPe3-37" vertex="1">
          <mxGeometry x="20" y="30" width="310" height="30" as="geometry" />
        </mxCell>
        <mxCell id="N_Y2BpB6N8M6M0zJIPe3-39" style="edgeStyle=orthogonalEdgeStyle;rounded=0;orthogonalLoop=1;jettySize=auto;html=1;exitX=0.75;exitY=1;exitDx=0;exitDy=0;entryX=0.75;entryY=0;entryDx=0;entryDy=0;strokeColor=#028090;fontColor=#E4FDE1;fillColor=#F45B69;labelBackgroundColor=#114B5F;" parent="WIyWlLk6GJQsqaUBKTNV-1" source="N_Y2BpB6N8M6M0zJIPe3-40" target="N_Y2BpB6N8M6M0zJIPe3-37" edge="1">
          <mxGeometry relative="1" as="geometry" />
        </mxCell>
        <mxCell id="N_Y2BpB6N8M6M0zJIPe3-40" value="Views\&lt;span style=&quot;font-family: ui-monospace, SFMono-Regular, &amp;quot;SF Mono&amp;quot;, Menlo, Consolas, &amp;quot;Liberation Mono&amp;quot;, monospace; font-weight: 400; text-align: start;&quot;&gt;&lt;font style=&quot;&quot; color=&quot;#ffff33&quot;&gt;AlternatorManualModeView&lt;/font&gt;&lt;/span&gt;&lt;span style=&quot;font-family: ui-monospace, SFMono-Regular, &amp;quot;SF Mono&amp;quot;, Menlo, Consolas, &amp;quot;Liberation Mono&amp;quot;, monospace; font-weight: 400; text-align: start;&quot;&gt;&lt;font style=&quot;&quot; color=&quot;#ffff33&quot;&gt;.xaml&lt;/font&gt;&lt;/span&gt;" style="swimlane;whiteSpace=wrap;html=1;labelBackgroundColor=none;strokeColor=#028090;strokeWidth=2;fontSize=12;fontColor=#E4FDE1;fillColor=#F45B69;" parent="WIyWlLk6GJQsqaUBKTNV-1" vertex="1">
          <mxGeometry x="462.5" y="110" width="320" height="76" as="geometry">
            <mxRectangle x="-480" y="450" width="270" height="30" as="alternateBounds" />
          </mxGeometry>
        </mxCell>
        <mxCell id="N_Y2BpB6N8M6M0zJIPe3-41" value="Форма экрана&amp;nbsp;&lt;span style=&quot;color: rgb(255, 255, 255);&quot;&gt;ручной проверки генератора&lt;/span&gt;" style="text;html=1;align=center;verticalAlign=middle;resizable=0;points=[];autosize=1;strokeColor=none;fillColor=none;fontColor=#E4FDE1;" parent="N_Y2BpB6N8M6M0zJIPe3-40" vertex="1">
          <mxGeometry x="22.5" y="30" width="270" height="30" as="geometry" />
        </mxCell>
        <mxCell id="N_Y2BpB6N8M6M0zJIPe3-46" style="edgeStyle=orthogonalEdgeStyle;rounded=0;orthogonalLoop=1;jettySize=auto;html=1;entryX=0.5;entryY=1;entryDx=0;entryDy=0;strokeColor=#028090;fontSize=12;fontColor=#E4FDE1;fillColor=#F45B69;labelBackgroundColor=#114B5F;" parent="WIyWlLk6GJQsqaUBKTNV-1" source="N_Y2BpB6N8M6M0zJIPe3-47" target="N_Y2BpB6N8M6M0zJIPe3-51" edge="1">
          <mxGeometry relative="1" as="geometry" />
        </mxCell>
        <mxCell id="N_Y2BpB6N8M6M0zJIPe3-47" value="&lt;font style=&quot;font-size: 12px;&quot;&gt;&lt;font color=&quot;#ffffff&quot; style=&quot;font-size: 12px;&quot;&gt;Models\&lt;/font&gt;&lt;span style=&quot;font-family: ui-monospace, SFMono-Regular, &amp;quot;SF Mono&amp;quot;, Menlo, Consolas, &amp;quot;Liberation Mono&amp;quot;, monospace; font-weight: 400; text-align: start;&quot;&gt;&lt;font style=&quot;&quot; color=&quot;#ffff33&quot;&gt;Alternator&lt;/font&gt;&lt;/span&gt;&lt;span style=&quot;color: rgb(255, 255, 51); font-family: ui-monospace, SFMono-Regular, &amp;quot;SF Mono&amp;quot;, Menlo, Consolas, &amp;quot;Liberation Mono&amp;quot;, monospace; font-weight: 400; text-align: start;&quot;&gt;Automatic&lt;/span&gt;&lt;span style=&quot;font-family: ui-monospace, SFMono-Regular, &amp;quot;SF Mono&amp;quot;, Menlo, Consolas, &amp;quot;Liberation Mono&amp;quot;, monospace; font-weight: 400; text-align: start;&quot;&gt;&lt;font style=&quot;&quot; color=&quot;#ffff33&quot;&gt;ModeModel&lt;/font&gt;&lt;/span&gt;&lt;a class=&quot;js-navigation-open Link--primary&quot; title=&quot;AlternatorAutomaticModel.cs&quot; data-turbo-frame=&quot;repo-content-turbo-frame&quot; href=&quot;https://github.com/MSGequipment/MS005-PC/blob/master/MS005/MS005/Models/AlternatorAutomaticModel.cs&quot; style=&quot;box-sizing: border-box; text-decoration-line: none; font-family: -apple-system, &amp;quot;system-ui&amp;quot;, &amp;quot;Segoe UI&amp;quot;, &amp;quot;Noto Sans&amp;quot;, Helvetica, Arial, sans-serif, &amp;quot;Apple Color Emoji&amp;quot;, &amp;quot;Segoe UI Emoji&amp;quot;; font-weight: 400; text-align: start;&quot;&gt;&lt;font color=&quot;#ffff33&quot;&gt;.cs&lt;/font&gt;&lt;/a&gt;&lt;/font&gt;" style="swimlane;whiteSpace=wrap;html=1;strokeColor=#028090;strokeWidth=2;fontSize=12;fontColor=#E4FDE1;fillColor=#F45B69;" parent="WIyWlLk6GJQsqaUBKTNV-1" vertex="1">
          <mxGeometry x="465" y="678.5" width="315" height="75" as="geometry" />
        </mxCell>
        <mxCell id="N_Y2BpB6N8M6M0zJIPe3-48" value="&lt;font color=&quot;#ffffff&quot;&gt;Класс логики окна проверки генератора в&lt;br&gt;&amp;nbsp;автоматическом режиме&lt;/font&gt;" style="text;html=1;align=center;verticalAlign=middle;resizable=0;points=[];autosize=1;strokeColor=none;fillColor=none;fontSize=12;fontColor=#E4FDE1;" parent="N_Y2BpB6N8M6M0zJIPe3-47" vertex="1">
          <mxGeometry x="27.5" y="27" width="260" height="40" as="geometry" />
        </mxCell>
        <mxCell id="N_Y2BpB6N8M6M0zJIPe3-49" style="edgeStyle=orthogonalEdgeStyle;rounded=0;orthogonalLoop=1;jettySize=auto;html=1;exitX=0.75;exitY=1;exitDx=0;exitDy=0;entryX=0.778;entryY=0;entryDx=0;entryDy=0;entryPerimeter=0;strokeColor=#028090;fontColor=#E4FDE1;fillColor=#F45B69;labelBackgroundColor=#114B5F;" parent="WIyWlLk6GJQsqaUBKTNV-1" source="N_Y2BpB6N8M6M0zJIPe3-51" target="N_Y2BpB6N8M6M0zJIPe3-47" edge="1">
          <mxGeometry relative="1" as="geometry" />
        </mxCell>
        <mxCell id="N_Y2BpB6N8M6M0zJIPe3-50" style="edgeStyle=orthogonalEdgeStyle;rounded=0;orthogonalLoop=1;jettySize=auto;html=1;strokeColor=#028090;fontColor=#E4FDE1;fillColor=#F45B69;labelBackgroundColor=#114B5F;" parent="WIyWlLk6GJQsqaUBKTNV-1" source="N_Y2BpB6N8M6M0zJIPe3-51" target="N_Y2BpB6N8M6M0zJIPe3-54" edge="1">
          <mxGeometry relative="1" as="geometry" />
        </mxCell>
        <mxCell id="N_Y2BpB6N8M6M0zJIPe3-51" value="ViewModels\&lt;span style=&quot;box-sizing: border-box; font-family: ui-monospace, SFMono-Regular, &amp;quot;SF Mono&amp;quot;, Menlo, Consolas, &amp;quot;Liberation Mono&amp;quot;, monospace; font-weight: 400; text-align: start;&quot; class=&quot;pl-en&quot;&gt;&lt;span style=&quot;box-sizing: border-box;&quot; data-hydro-click-hmac=&quot;5f341075337c455da308e6e12d2586667c5935532e5564b892a86433cfcfb846&quot; data-hydro-click=&quot;{&amp;quot;event_type&amp;quot;:&amp;quot;code_navigation.click_on_symbol&amp;quot;,&amp;quot;payload&amp;quot;:{&amp;quot;action&amp;quot;:&amp;quot;click_on_symbol&amp;quot;,&amp;quot;repository_id&amp;quot;:252561255,&amp;quot;ref&amp;quot;:&amp;quot;master&amp;quot;,&amp;quot;language&amp;quot;:&amp;quot;C#&amp;quot;,&amp;quot;backend&amp;quot;:&amp;quot;ALEPH_FUZZY&amp;quot;,&amp;quot;code_nav_context&amp;quot;:&amp;quot;BLOB_VIEW&amp;quot;,&amp;quot;retry_backend&amp;quot;:&amp;quot;&amp;quot;,&amp;quot;cross_repo_results_included&amp;quot;:&amp;quot;CROSS_REPO_ENABLED&amp;quot;,&amp;quot;in_repo_result_count&amp;quot;:1,&amp;quot;cross_repo_result_count&amp;quot;:0,&amp;quot;originating_url&amp;quot;:&amp;quot;https://github.com/MSGequipment/MS005-PC/find-definition?q=AlternatorManualModeSetupViewModel&amp;amp;blob_path=MS005%2FMS005%2FView+Models%2FAlternatorManualModeSetupViewModel.cs&amp;amp;ref=master&amp;amp;language=C%23&amp;amp;row=14&amp;amp;col=10&amp;amp;code_nav_context=BLOB_VIEW&amp;quot;,&amp;quot;user_id&amp;quot;:33692627}}&quot; class=&quot;pl-token&quot;&gt;&lt;font style=&quot;&quot; color=&quot;#ffff33&quot;&gt;Alternator&lt;/font&gt;&lt;span style=&quot;color: rgb(255, 255, 51);&quot;&gt;Automatic&lt;/span&gt;&lt;font style=&quot;&quot; color=&quot;#ffff33&quot;&gt;ModeViewModel&lt;/font&gt;&lt;/span&gt;&lt;/span&gt;&lt;span style=&quot;font-family: ui-monospace, SFMono-Regular, &amp;quot;SF Mono&amp;quot;, Menlo, Consolas, &amp;quot;Liberation Mono&amp;quot;, monospace; font-weight: 400; text-align: start;&quot;&gt;&lt;font style=&quot;&quot; color=&quot;#ffff33&quot;&gt;.cs&lt;/font&gt;&lt;/span&gt;" style="swimlane;whiteSpace=wrap;html=1;labelBackgroundColor=none;strokeColor=#028090;strokeWidth=2;fontSize=12;fontColor=#E4FDE1;fillColor=#F45B69;" parent="WIyWlLk6GJQsqaUBKTNV-1" vertex="1">
          <mxGeometry x="430" y="576.5" width="385" height="76" as="geometry">
            <mxRectangle x="-480" y="450" width="270" height="30" as="alternateBounds" />
          </mxGeometry>
        </mxCell>
        <mxCell id="N_Y2BpB6N8M6M0zJIPe3-52" value="View Model - обмен данными с моделью и формой" style="text;html=1;align=center;verticalAlign=middle;resizable=0;points=[];autosize=1;strokeColor=none;fillColor=none;fontColor=#E4FDE1;" parent="N_Y2BpB6N8M6M0zJIPe3-51" vertex="1">
          <mxGeometry x="27.5" y="31.5" width="310" height="30" as="geometry" />
        </mxCell>
        <mxCell id="N_Y2BpB6N8M6M0zJIPe3-53" style="edgeStyle=orthogonalEdgeStyle;rounded=0;orthogonalLoop=1;jettySize=auto;html=1;exitX=0.75;exitY=1;exitDx=0;exitDy=0;entryX=0.75;entryY=0;entryDx=0;entryDy=0;strokeColor=#028090;fontColor=#E4FDE1;fillColor=#F45B69;labelBackgroundColor=#114B5F;" parent="WIyWlLk6GJQsqaUBKTNV-1" source="N_Y2BpB6N8M6M0zJIPe3-54" target="N_Y2BpB6N8M6M0zJIPe3-51" edge="1">
          <mxGeometry relative="1" as="geometry" />
        </mxCell>
        <mxCell id="N_Y2BpB6N8M6M0zJIPe3-54" value="Views\&lt;span style=&quot;font-family: ui-monospace, SFMono-Regular, &amp;quot;SF Mono&amp;quot;, Menlo, Consolas, &amp;quot;Liberation Mono&amp;quot;, monospace; font-weight: 400; text-align: start;&quot;&gt;&lt;font style=&quot;&quot; color=&quot;#ffff33&quot;&gt;AlternatorAutomaticModeView&lt;/font&gt;&lt;/span&gt;&lt;span style=&quot;font-family: ui-monospace, SFMono-Regular, &amp;quot;SF Mono&amp;quot;, Menlo, Consolas, &amp;quot;Liberation Mono&amp;quot;, monospace; font-weight: 400; text-align: start;&quot;&gt;&lt;font style=&quot;&quot; color=&quot;#ffff33&quot;&gt;.xaml&lt;/font&gt;&lt;/span&gt;" style="swimlane;whiteSpace=wrap;html=1;labelBackgroundColor=none;strokeColor=#028090;strokeWidth=2;fontSize=12;fontColor=#E4FDE1;fillColor=#F45B69;" parent="WIyWlLk6GJQsqaUBKTNV-1" vertex="1">
          <mxGeometry x="462.5" y="478.5" width="320" height="76" as="geometry">
            <mxRectangle x="-480" y="450" width="270" height="30" as="alternateBounds" />
          </mxGeometry>
        </mxCell>
        <mxCell id="N_Y2BpB6N8M6M0zJIPe3-55" value="Форма экрана проверки генератора в &lt;br&gt;автоматическом режиме" style="text;html=1;align=center;verticalAlign=middle;resizable=0;points=[];autosize=1;strokeColor=none;fillColor=none;fontColor=#E4FDE1;" parent="N_Y2BpB6N8M6M0zJIPe3-54" vertex="1">
          <mxGeometry x="42.5" y="25" width="230" height="40" as="geometry" />
        </mxCell>
        <mxCell id="N_Y2BpB6N8M6M0zJIPe3-57" style="edgeStyle=orthogonalEdgeStyle;rounded=0;orthogonalLoop=1;jettySize=auto;html=1;entryX=0.5;entryY=1;entryDx=0;entryDy=0;strokeColor=#028090;fontSize=12;fontColor=#E4FDE1;fillColor=#F45B69;labelBackgroundColor=#114B5F;" parent="WIyWlLk6GJQsqaUBKTNV-1" source="N_Y2BpB6N8M6M0zJIPe3-58" target="N_Y2BpB6N8M6M0zJIPe3-62" edge="1">
          <mxGeometry relative="1" as="geometry" />
        </mxCell>
        <mxCell id="N_Y2BpB6N8M6M0zJIPe3-58" value="&lt;font style=&quot;font-size: 12px;&quot;&gt;&lt;font style=&quot;font-size: 12px;&quot; color=&quot;#ffffff&quot;&gt;Models\&lt;/font&gt;&lt;font style=&quot;font-size: 12px;&quot; color=&quot;#ffff33&quot;&gt;StarterManual&lt;/font&gt;&lt;span style=&quot;font-family: ui-monospace, SFMono-Regular, &amp;quot;SF Mono&amp;quot;, Menlo, Consolas, &amp;quot;Liberation Mono&amp;quot;, monospace; font-weight: 400; text-align: start;&quot;&gt;&lt;font color=&quot;#ffff33&quot; style=&quot;&quot;&gt;ModeModel&lt;/font&gt;&lt;/span&gt;&lt;a style=&quot;box-sizing: border-box; text-decoration-line: none; font-family: -apple-system, &amp;quot;system-ui&amp;quot;, &amp;quot;Segoe UI&amp;quot;, &amp;quot;Noto Sans&amp;quot;, Helvetica, Arial, sans-serif, &amp;quot;Apple Color Emoji&amp;quot;, &amp;quot;Segoe UI Emoji&amp;quot;; font-weight: 400; text-align: start;&quot; href=&quot;https://github.com/MSGequipment/MS005-PC/blob/master/MS005/MS005/Models/AlternatorAutomaticModel.cs&quot; data-turbo-frame=&quot;repo-content-turbo-frame&quot; title=&quot;AlternatorAutomaticModel.cs&quot; class=&quot;js-navigation-open Link--primary&quot;&gt;&lt;font color=&quot;#ffff33&quot;&gt;.cs&lt;/font&gt;&lt;/a&gt;&lt;/font&gt;" style="swimlane;whiteSpace=wrap;html=1;strokeColor=#028090;strokeWidth=2;fontSize=12;fontColor=#E4FDE1;fillColor=#F45B69;" parent="WIyWlLk6GJQsqaUBKTNV-1" vertex="1">
          <mxGeometry x="465" y="1028.5" width="315" height="75" as="geometry" />
        </mxCell>
        <mxCell id="N_Y2BpB6N8M6M0zJIPe3-59" value="&lt;font color=&quot;#ffffff&quot;&gt;Класс логики окна настройки стартера&lt;/font&gt;" style="text;html=1;align=center;verticalAlign=middle;resizable=0;points=[];autosize=1;strokeColor=none;fillColor=none;fontSize=12;fontColor=#E4FDE1;" parent="N_Y2BpB6N8M6M0zJIPe3-58" vertex="1">
          <mxGeometry x="37.5" y="32" width="240" height="30" as="geometry" />
        </mxCell>
        <mxCell id="N_Y2BpB6N8M6M0zJIPe3-60" style="edgeStyle=orthogonalEdgeStyle;rounded=0;orthogonalLoop=1;jettySize=auto;html=1;exitX=0.75;exitY=1;exitDx=0;exitDy=0;entryX=0.778;entryY=0;entryDx=0;entryDy=0;entryPerimeter=0;strokeColor=#028090;fontColor=#E4FDE1;fillColor=#F45B69;labelBackgroundColor=#114B5F;" parent="WIyWlLk6GJQsqaUBKTNV-1" source="N_Y2BpB6N8M6M0zJIPe3-62" target="N_Y2BpB6N8M6M0zJIPe3-58" edge="1">
          <mxGeometry relative="1" as="geometry" />
        </mxCell>
        <mxCell id="N_Y2BpB6N8M6M0zJIPe3-61" style="edgeStyle=orthogonalEdgeStyle;rounded=0;orthogonalLoop=1;jettySize=auto;html=1;strokeColor=#028090;fontColor=#E4FDE1;fillColor=#F45B69;labelBackgroundColor=#114B5F;" parent="WIyWlLk6GJQsqaUBKTNV-1" source="N_Y2BpB6N8M6M0zJIPe3-62" target="N_Y2BpB6N8M6M0zJIPe3-65" edge="1">
          <mxGeometry relative="1" as="geometry" />
        </mxCell>
        <mxCell id="N_Y2BpB6N8M6M0zJIPe3-62" value="ViewModels\&lt;span style=&quot;box-sizing: border-box; font-family: ui-monospace, SFMono-Regular, &amp;quot;SF Mono&amp;quot;, Menlo, Consolas, &amp;quot;Liberation Mono&amp;quot;, monospace; font-weight: 400; text-align: start;&quot; class=&quot;pl-en&quot;&gt;&lt;span style=&quot;box-sizing: border-box;&quot; data-hydro-click-hmac=&quot;5f341075337c455da308e6e12d2586667c5935532e5564b892a86433cfcfb846&quot; data-hydro-click=&quot;{&amp;quot;event_type&amp;quot;:&amp;quot;code_navigation.click_on_symbol&amp;quot;,&amp;quot;payload&amp;quot;:{&amp;quot;action&amp;quot;:&amp;quot;click_on_symbol&amp;quot;,&amp;quot;repository_id&amp;quot;:252561255,&amp;quot;ref&amp;quot;:&amp;quot;master&amp;quot;,&amp;quot;language&amp;quot;:&amp;quot;C#&amp;quot;,&amp;quot;backend&amp;quot;:&amp;quot;ALEPH_FUZZY&amp;quot;,&amp;quot;code_nav_context&amp;quot;:&amp;quot;BLOB_VIEW&amp;quot;,&amp;quot;retry_backend&amp;quot;:&amp;quot;&amp;quot;,&amp;quot;cross_repo_results_included&amp;quot;:&amp;quot;CROSS_REPO_ENABLED&amp;quot;,&amp;quot;in_repo_result_count&amp;quot;:1,&amp;quot;cross_repo_result_count&amp;quot;:0,&amp;quot;originating_url&amp;quot;:&amp;quot;https://github.com/MSGequipment/MS005-PC/find-definition?q=AlternatorManualModeSetupViewModel&amp;amp;blob_path=MS005%2FMS005%2FView+Models%2FAlternatorManualModeSetupViewModel.cs&amp;amp;ref=master&amp;amp;language=C%23&amp;amp;row=14&amp;amp;col=10&amp;amp;code_nav_context=BLOB_VIEW&amp;quot;,&amp;quot;user_id&amp;quot;:33692627}}&quot; class=&quot;pl-token&quot;&gt;&lt;span style=&quot;color: rgb(255, 255, 51); font-family: Helvetica; font-weight: 700; text-align: center;&quot;&gt;StarterManual&lt;/span&gt;&lt;font style=&quot;&quot; color=&quot;#ffff33&quot;&gt;ModeViewModel&lt;/font&gt;&lt;/span&gt;&lt;/span&gt;&lt;span style=&quot;font-family: ui-monospace, SFMono-Regular, &amp;quot;SF Mono&amp;quot;, Menlo, Consolas, &amp;quot;Liberation Mono&amp;quot;, monospace; font-weight: 400; text-align: start;&quot;&gt;&lt;font style=&quot;&quot; color=&quot;#ffff33&quot;&gt;.cs&lt;/font&gt;&lt;/span&gt;" style="swimlane;whiteSpace=wrap;html=1;labelBackgroundColor=none;strokeColor=#028090;strokeWidth=2;fontSize=12;fontColor=#E4FDE1;fillColor=#F45B69;" parent="WIyWlLk6GJQsqaUBKTNV-1" vertex="1">
          <mxGeometry x="430" y="928.5" width="385" height="76" as="geometry">
            <mxRectangle x="-480" y="450" width="270" height="30" as="alternateBounds" />
          </mxGeometry>
        </mxCell>
        <mxCell id="N_Y2BpB6N8M6M0zJIPe3-63" value="View Model - обмен данными с моделью и формой" style="text;html=1;align=center;verticalAlign=middle;resizable=0;points=[];autosize=1;strokeColor=none;fillColor=none;fontColor=#E4FDE1;" parent="N_Y2BpB6N8M6M0zJIPe3-62" vertex="1">
          <mxGeometry x="20" y="32" width="310" height="30" as="geometry" />
        </mxCell>
        <mxCell id="N_Y2BpB6N8M6M0zJIPe3-64" style="edgeStyle=orthogonalEdgeStyle;rounded=0;orthogonalLoop=1;jettySize=auto;html=1;exitX=0.75;exitY=1;exitDx=0;exitDy=0;entryX=0.75;entryY=0;entryDx=0;entryDy=0;strokeColor=#028090;fontColor=#E4FDE1;fillColor=#F45B69;labelBackgroundColor=#114B5F;" parent="WIyWlLk6GJQsqaUBKTNV-1" source="N_Y2BpB6N8M6M0zJIPe3-65" target="N_Y2BpB6N8M6M0zJIPe3-62" edge="1">
          <mxGeometry relative="1" as="geometry" />
        </mxCell>
        <mxCell id="N_Y2BpB6N8M6M0zJIPe3-65" value="Views\&lt;span style=&quot;color: rgb(255, 255, 51);&quot;&gt;StarterManual&lt;/span&gt;&lt;span style=&quot;font-family: ui-monospace, SFMono-Regular, &amp;quot;SF Mono&amp;quot;, Menlo, Consolas, &amp;quot;Liberation Mono&amp;quot;, monospace; font-weight: 400; text-align: start;&quot;&gt;&lt;font style=&quot;&quot; color=&quot;#ffff33&quot;&gt;ModeView&lt;/font&gt;&lt;/span&gt;&lt;span style=&quot;font-family: ui-monospace, SFMono-Regular, &amp;quot;SF Mono&amp;quot;, Menlo, Consolas, &amp;quot;Liberation Mono&amp;quot;, monospace; font-weight: 400; text-align: start;&quot;&gt;&lt;font style=&quot;&quot; color=&quot;#ffff33&quot;&gt;.xaml&lt;/font&gt;&lt;/span&gt;" style="swimlane;whiteSpace=wrap;html=1;labelBackgroundColor=none;strokeColor=#028090;strokeWidth=2;fontSize=12;fontColor=#E4FDE1;fillColor=#F45B69;" parent="WIyWlLk6GJQsqaUBKTNV-1" vertex="1">
          <mxGeometry x="462.5" y="828.5" width="320" height="76" as="geometry">
            <mxRectangle x="-480" y="450" width="270" height="30" as="alternateBounds" />
          </mxGeometry>
        </mxCell>
        <mxCell id="N_Y2BpB6N8M6M0zJIPe3-66" value="Форма экрана настройки стартера" style="text;html=1;align=center;verticalAlign=middle;resizable=0;points=[];autosize=1;strokeColor=none;fillColor=none;fontColor=#E4FDE1;" parent="N_Y2BpB6N8M6M0zJIPe3-65" vertex="1">
          <mxGeometry x="47.5" y="30" width="220" height="30" as="geometry" />
        </mxCell>
        <mxCell id="N_Y2BpB6N8M6M0zJIPe3-72" style="edgeStyle=orthogonalEdgeStyle;rounded=0;orthogonalLoop=1;jettySize=auto;html=1;entryX=0;entryY=0.75;entryDx=0;entryDy=0;strokeColor=#028090;fontFamily=Verdana;fontColor=#FFFF33;fillColor=#F45B69;" parent="WIyWlLk6GJQsqaUBKTNV-1" source="3y8yjmwaF7QzrDSz1sdv-22" target="N_Y2BpB6N8M6M0zJIPe3-22" edge="1">
          <mxGeometry relative="1" as="geometry" />
        </mxCell>
        <mxCell id="N_Y2BpB6N8M6M0zJIPe3-78" style="edgeStyle=orthogonalEdgeStyle;rounded=0;orthogonalLoop=1;jettySize=auto;html=1;entryX=1;entryY=0.5;entryDx=0;entryDy=0;strokeColor=#028090;fontFamily=Verdana;fontColor=#FFFF33;fillColor=#F45B69;" parent="WIyWlLk6GJQsqaUBKTNV-1" source="N_Y2BpB6N8M6M0zJIPe3-73" target="N_Y2BpB6N8M6M0zJIPe3-47" edge="1">
          <mxGeometry relative="1" as="geometry" />
        </mxCell>
        <mxCell id="N_Y2BpB6N8M6M0zJIPe3-73" value="&lt;font style=&quot;font-size: 12px;&quot;&gt;&lt;font style=&quot;font-size: 12px;&quot; color=&quot;#ffffff&quot;&gt;Models\&lt;/font&gt;&lt;span style=&quot;font-family: ui-monospace, SFMono-Regular, &amp;quot;SF Mono&amp;quot;, Menlo, Consolas, &amp;quot;Liberation Mono&amp;quot;, monospace; font-weight: 400; text-align: start;&quot;&gt;&lt;font color=&quot;#ffff33&quot; style=&quot;&quot;&gt;SemiautomaticAlternatorTests&lt;/font&gt;&lt;/span&gt;&lt;a style=&quot;box-sizing: border-box; text-decoration-line: none; font-family: -apple-system, &amp;quot;system-ui&amp;quot;, &amp;quot;Segoe UI&amp;quot;, &amp;quot;Noto Sans&amp;quot;, Helvetica, Arial, sans-serif, &amp;quot;Apple Color Emoji&amp;quot;, &amp;quot;Segoe UI Emoji&amp;quot;; font-weight: 400; text-align: start;&quot; href=&quot;https://github.com/MSGequipment/MS005-PC/blob/master/MS005/MS005/Models/AlternatorAutomaticModel.cs&quot; data-turbo-frame=&quot;repo-content-turbo-frame&quot; title=&quot;AlternatorAutomaticModel.cs&quot; class=&quot;js-navigation-open Link--primary&quot;&gt;&lt;font color=&quot;#ffff33&quot;&gt;.cs&lt;/font&gt;&lt;/a&gt;&lt;/font&gt;" style="swimlane;whiteSpace=wrap;html=1;strokeColor=#028090;strokeWidth=2;fontSize=12;fontColor=#E4FDE1;fillColor=#F45B69;" parent="WIyWlLk6GJQsqaUBKTNV-1" vertex="1">
          <mxGeometry x="870" y="760" width="315" height="75" as="geometry" />
        </mxCell>
        <mxCell id="N_Y2BpB6N8M6M0zJIPe3-74" value="&lt;font color=&quot;#ffffff&quot;&gt;Непосредственно автотесты&lt;/font&gt;" style="text;html=1;align=center;verticalAlign=middle;resizable=0;points=[];autosize=1;strokeColor=none;fillColor=none;fontSize=12;fontColor=#E4FDE1;" parent="N_Y2BpB6N8M6M0zJIPe3-73" vertex="1">
          <mxGeometry x="67.5" y="32" width="180" height="30" as="geometry" />
        </mxCell>
        <mxCell id="RUzcSiuXliNimT-yvBDv-0" value="функция EthConnection_EthDataReceived" style="swimlane;whiteSpace=wrap;html=1;strokeColor=#028090;strokeWidth=2;fontSize=12;fontColor=#E4FDE1;fillColor=#F45B69;" vertex="1" parent="WIyWlLk6GJQsqaUBKTNV-1">
          <mxGeometry x="-750" y="1680" width="405" height="130" as="geometry" />
        </mxCell>
        <mxCell id="RUzcSiuXliNimT-yvBDv-1" value="&lt;div style=&quot;&quot;&gt;&lt;span style=&quot;color: rgb(255, 255, 255); background-color: initial;&quot;&gt;Принимает в себя массив байт, что прилетели по эзернету.&lt;/span&gt;&lt;/div&gt;&lt;div style=&quot;&quot;&gt;&lt;span style=&quot;color: rgb(255, 255, 255); background-color: initial;&quot;&gt;Тут происходит считывание и обработка номера кабеля, считается&lt;/span&gt;&lt;/div&gt;&lt;div style=&quot;&quot;&gt;&lt;span style=&quot;color: rgb(255, 255, 255); background-color: initial;&quot;&gt;частота FR, данные с датчиков отправляются по буферам,&amp;nbsp;&lt;/span&gt;&lt;/div&gt;&lt;div style=&quot;&quot;&gt;&lt;span style=&quot;color: rgb(255, 255, 255); background-color: initial;&quot;&gt;где раскладываются по массивам и переменным&lt;/span&gt;&lt;/div&gt;" style="text;html=1;align=left;verticalAlign=middle;resizable=0;points=[];autosize=1;strokeColor=none;fillColor=none;fontSize=12;fontColor=#E4FDE1;" vertex="1" parent="RUzcSiuXliNimT-yvBDv-0">
          <mxGeometry x="2.5" y="40" width="400" height="70" as="geometry" />
        </mxCell>
      </root>
    </mxGraphModel>
  </diagram>
  <diagram id="_PogG8ZPJiwbrfl2tI9x" name="COM">
    <mxGraphModel dx="3387" dy="-60" grid="1" gridSize="10" guides="1" tooltips="1" connect="1" arrows="1" fold="1" page="1" pageScale="1" pageWidth="850" pageHeight="1100" background="#114B5F" math="0" shadow="0">
      <root>
        <mxCell id="0" />
        <mxCell id="1" parent="0" />
        <mxCell id="HBwdoB35x7za6jWLx2b9-1" value="Protocols\&lt;font color=&quot;#ffff33&quot;&gt;LINRequest&lt;/font&gt;&lt;span style=&quot;font-family: ui-monospace, SFMono-Regular, &amp;quot;SF Mono&amp;quot;, Menlo, Consolas, &amp;quot;Liberation Mono&amp;quot;, monospace; font-weight: 400; text-align: start;&quot;&gt;&lt;font style=&quot;&quot; color=&quot;#ffff33&quot;&gt;.cs&lt;/font&gt;&lt;/span&gt;" style="swimlane;whiteSpace=wrap;html=1;labelBackgroundColor=none;strokeColor=#028090;strokeWidth=2;fontSize=12;fontColor=#E4FDE1;fillColor=#F45B69;" parent="1" vertex="1">
          <mxGeometry x="-830" y="1310" width="347.5" height="76" as="geometry">
            <mxRectangle x="-480" y="450" width="270" height="30" as="alternateBounds" />
          </mxGeometry>
        </mxCell>
        <mxCell id="HBwdoB35x7za6jWLx2b9-2" value="&lt;div style=&quot;text-align: justify;&quot;&gt;&lt;span style=&quot;background-color: initial;&quot;&gt;Основной поток работы в режиме LIN. Тут определяется&lt;/span&gt;&lt;/div&gt;&lt;div style=&quot;text-align: justify;&quot;&gt;&lt;span style=&quot;background-color: initial;&quot;&gt;версия, меняется скорость, происходит обмен пакетами&lt;/span&gt;&lt;/div&gt;" style="text;html=1;align=center;verticalAlign=middle;resizable=0;points=[];autosize=1;strokeColor=none;fillColor=none;fontColor=#E4FDE1;" parent="HBwdoB35x7za6jWLx2b9-1" vertex="1">
          <mxGeometry y="25" width="340" height="40" as="geometry" />
        </mxCell>
        <mxCell id="WtN9D9pr-mMdK8t7s2Zm-1" value="&lt;a class=&quot;no-underline color-fg-default Link--onHover text-bold&quot; href=&quot;https://github.com/MSGequipment/MS005-PC/blob/c0dc92c4f5a4eaf558f3153e84f72464c5266e1c/MS005/MS005/Protocols/LBGControl.cs#L27&quot; style=&quot;box-sizing: border-box; background-color: rgb(22, 27, 34); cursor: pointer; font-family: -apple-system, &amp;quot;system-ui&amp;quot;, &amp;quot;Segoe UI&amp;quot;, &amp;quot;Noto Sans&amp;quot;, Helvetica, Arial, sans-serif, &amp;quot;Apple Color Emoji&amp;quot;, &amp;quot;Segoe UI Emoji&amp;quot;; text-align: start; color: var(--color-accent-fg)  !important; font-weight: var(--base-text-weight-semibold, 600)  !important;&quot;&gt;Protocols/LBGControl.cs&lt;/a&gt;" style="swimlane;whiteSpace=wrap;html=1;strokeColor=#028090;strokeWidth=2;fontSize=12;fontColor=#E4FDE1;fillColor=#F45B69;" parent="1" vertex="1">
          <mxGeometry x="-585" y="1130" width="320" height="110" as="geometry" />
        </mxCell>
        <mxCell id="WtN9D9pr-mMdK8t7s2Zm-2" value="&lt;div style=&quot;text-align: justify;&quot;&gt;&lt;span style=&quot;color: rgb(255, 255, 255); background-color: initial;&quot;&gt;Настройка и управление всем, что связано&amp;nbsp;&lt;/span&gt;&lt;/div&gt;&lt;font color=&quot;#ffffff&quot;&gt;&lt;div style=&quot;text-align: justify;&quot;&gt;&lt;span style=&quot;background-color: initial;&quot;&gt;с линией GC. Тут настраиваются все протоколы,&lt;/span&gt;&lt;/div&gt;&lt;div style=&quot;text-align: justify;&quot;&gt;запускаются и останавливаются необходимые&amp;nbsp;&lt;/div&gt;&lt;div style=&quot;text-align: justify;&quot;&gt;потоки для работы с каждым отдельным протоколом.&lt;/div&gt;&lt;/font&gt;" style="text;html=1;align=center;verticalAlign=middle;resizable=0;points=[];autosize=1;strokeColor=none;fillColor=none;fontSize=12;fontColor=#E4FDE1;" parent="WtN9D9pr-mMdK8t7s2Zm-1" vertex="1">
          <mxGeometry y="30" width="320" height="70" as="geometry" />
        </mxCell>
        <mxCell id="WtN9D9pr-mMdK8t7s2Zm-3" style="edgeStyle=orthogonalEdgeStyle;rounded=0;orthogonalLoop=1;jettySize=auto;html=1;entryX=0.5;entryY=0;entryDx=0;entryDy=0;strokeColor=#028090;fontColor=#E4FDE1;fillColor=#F45B69;" parent="1" source="WtN9D9pr-mMdK8t7s2Zm-2" target="HBwdoB35x7za6jWLx2b9-1" edge="1">
          <mxGeometry relative="1" as="geometry" />
        </mxCell>
        <mxCell id="WtN9D9pr-mMdK8t7s2Zm-4" value="Protocols\&lt;font color=&quot;#ffff33&quot;&gt;BSSRequest&lt;/font&gt;&lt;span style=&quot;font-family: ui-monospace, SFMono-Regular, &amp;quot;SF Mono&amp;quot;, Menlo, Consolas, &amp;quot;Liberation Mono&amp;quot;, monospace; font-weight: 400; text-align: start;&quot;&gt;&lt;font style=&quot;&quot; color=&quot;#ffff33&quot;&gt;.cs&lt;/font&gt;&lt;/span&gt;" style="swimlane;whiteSpace=wrap;html=1;labelBackgroundColor=none;strokeColor=#028090;strokeWidth=2;fontSize=12;fontColor=#E4FDE1;fillColor=#F45B69;" parent="1" vertex="1">
          <mxGeometry x="-360" y="1310" width="347.5" height="76" as="geometry">
            <mxRectangle x="-480" y="450" width="270" height="30" as="alternateBounds" />
          </mxGeometry>
        </mxCell>
        <mxCell id="WtN9D9pr-mMdK8t7s2Zm-5" value="&lt;div style=&quot;text-align: justify;&quot;&gt;&lt;span style=&quot;background-color: initial;&quot;&gt;Основной поток работы в режиме BSS. Тут определяется&lt;/span&gt;&lt;/div&gt;&lt;div style=&quot;text-align: justify;&quot;&gt;&lt;span style=&quot;background-color: initial;&quot;&gt;версия, меняется скорость, происходит обмен пакетами&lt;/span&gt;&lt;/div&gt;" style="text;html=1;align=center;verticalAlign=middle;resizable=0;points=[];autosize=1;strokeColor=none;fillColor=none;fontColor=#E4FDE1;" parent="WtN9D9pr-mMdK8t7s2Zm-4" vertex="1">
          <mxGeometry y="25" width="340" height="40" as="geometry" />
        </mxCell>
        <mxCell id="WtN9D9pr-mMdK8t7s2Zm-6" style="edgeStyle=orthogonalEdgeStyle;rounded=0;orthogonalLoop=1;jettySize=auto;html=1;entryX=0.5;entryY=0;entryDx=0;entryDy=0;strokeColor=#028090;fontColor=#E4FDE1;fillColor=#F45B69;" parent="1" source="WtN9D9pr-mMdK8t7s2Zm-2" target="WtN9D9pr-mMdK8t7s2Zm-4" edge="1">
          <mxGeometry relative="1" as="geometry" />
        </mxCell>
        <mxCell id="WtN9D9pr-mMdK8t7s2Zm-12" style="edgeStyle=orthogonalEdgeStyle;rounded=0;orthogonalLoop=1;jettySize=auto;html=1;entryX=0.5;entryY=1;entryDx=0;entryDy=0;strokeColor=#028090;fontColor=#E4FDE1;fillColor=#F45B69;" parent="1" source="WtN9D9pr-mMdK8t7s2Zm-7" target="HBwdoB35x7za6jWLx2b9-1" edge="1">
          <mxGeometry relative="1" as="geometry" />
        </mxCell>
        <mxCell id="WtN9D9pr-mMdK8t7s2Zm-13" style="edgeStyle=orthogonalEdgeStyle;rounded=0;orthogonalLoop=1;jettySize=auto;html=1;entryX=0.5;entryY=1;entryDx=0;entryDy=0;strokeColor=#028090;fontColor=#E4FDE1;fillColor=#F45B69;" parent="1" source="WtN9D9pr-mMdK8t7s2Zm-7" target="WtN9D9pr-mMdK8t7s2Zm-4" edge="1">
          <mxGeometry relative="1" as="geometry" />
        </mxCell>
        <mxCell id="WtN9D9pr-mMdK8t7s2Zm-7" value="Protocols\&lt;font color=&quot;#ffff33&quot;&gt;LINFunctions&lt;/font&gt;&lt;span style=&quot;font-family: ui-monospace, SFMono-Regular, &amp;quot;SF Mono&amp;quot;, Menlo, Consolas, &amp;quot;Liberation Mono&amp;quot;, monospace; font-weight: 400; text-align: start;&quot;&gt;&lt;font style=&quot;&quot; color=&quot;#ffff33&quot;&gt;.cs&lt;/font&gt;&lt;/span&gt;" style="swimlane;whiteSpace=wrap;html=1;labelBackgroundColor=none;strokeColor=#028090;strokeWidth=2;fontSize=12;fontColor=#E4FDE1;fillColor=#F45B69;" parent="1" vertex="1">
          <mxGeometry x="-580" y="1470" width="347.5" height="76" as="geometry">
            <mxRectangle x="-480" y="450" width="270" height="30" as="alternateBounds" />
          </mxGeometry>
        </mxCell>
        <mxCell id="WtN9D9pr-mMdK8t7s2Zm-8" value="&lt;div style=&quot;text-align: justify;&quot;&gt;Тут находятся функции для чтения и отправки&amp;nbsp;&lt;/div&gt;&lt;div style=&quot;text-align: justify;&quot;&gt;LIN и BSS данных.&amp;nbsp;&lt;/div&gt;" style="text;html=1;align=center;verticalAlign=middle;resizable=0;points=[];autosize=1;strokeColor=none;fillColor=none;fontColor=#E4FDE1;" parent="WtN9D9pr-mMdK8t7s2Zm-7" vertex="1">
          <mxGeometry x="25" y="25" width="290" height="40" as="geometry" />
        </mxCell>
        <mxCell id="6HWjotPKbTv_qJim1hyO-1" value="Protocols\&lt;font color=&quot;#ffff33&quot;&gt;LIN_TypeDefinitions&lt;/font&gt;&lt;span style=&quot;font-family: ui-monospace, SFMono-Regular, &amp;quot;SF Mono&amp;quot;, Menlo, Consolas, &amp;quot;Liberation Mono&amp;quot;, monospace; font-weight: 400; text-align: start;&quot;&gt;&lt;font style=&quot;&quot; color=&quot;#ffff33&quot;&gt;.cs&lt;/font&gt;&lt;/span&gt;" style="swimlane;whiteSpace=wrap;html=1;labelBackgroundColor=none;strokeColor=#028090;strokeWidth=2;fontSize=12;fontColor=#E4FDE1;fillColor=#F45B69;" vertex="1" parent="1">
          <mxGeometry x="-1640" y="1140" width="380" height="90" as="geometry">
            <mxRectangle x="-480" y="450" width="270" height="30" as="alternateBounds" />
          </mxGeometry>
        </mxCell>
        <mxCell id="6HWjotPKbTv_qJim1hyO-2" value="&lt;div style=&quot;text-align: justify;&quot;&gt;Тут хранятся енамы для всех видов протоколов и версий.&lt;/div&gt;&lt;div style=&quot;text-align: justify;&quot;&gt;А так же класс, в котором будет храниться тип протокола&lt;/div&gt;&lt;div style=&quot;text-align: justify;&quot;&gt;и словарь, где ключ - айдишник, а значение - размер пакета&amp;nbsp;&lt;/div&gt;" style="text;html=1;align=center;verticalAlign=middle;resizable=0;points=[];autosize=1;strokeColor=none;fillColor=none;fontColor=#E4FDE1;" vertex="1" parent="6HWjotPKbTv_qJim1hyO-1">
          <mxGeometry x="5" y="20" width="360" height="60" as="geometry" />
        </mxCell>
        <mxCell id="6HWjotPKbTv_qJim1hyO-3" value="Protocols\&lt;font color=&quot;#ffff33&quot;&gt;LIN_TypeCollection&lt;/font&gt;&lt;span style=&quot;font-family: ui-monospace, SFMono-Regular, &amp;quot;SF Mono&amp;quot;, Menlo, Consolas, &amp;quot;Liberation Mono&amp;quot;, monospace; font-weight: 400; text-align: start;&quot;&gt;&lt;font style=&quot;&quot; color=&quot;#ffff33&quot;&gt;.cs&lt;/font&gt;&lt;/span&gt;" style="swimlane;whiteSpace=wrap;html=1;labelBackgroundColor=none;strokeColor=#028090;strokeWidth=2;fontSize=12;fontColor=#E4FDE1;fillColor=#F45B69;" vertex="1" parent="1">
          <mxGeometry x="-1640" y="1250" width="380" height="80" as="geometry">
            <mxRectangle x="-480" y="450" width="270" height="30" as="alternateBounds" />
          </mxGeometry>
        </mxCell>
        <mxCell id="6HWjotPKbTv_qJim1hyO-4" value="&lt;div style=&quot;text-align: justify;&quot;&gt;Тут хранится и заполняется список классов LIN_TypeDefinition&amp;nbsp;&lt;/div&gt;" style="text;html=1;align=center;verticalAlign=middle;resizable=0;points=[];autosize=1;strokeColor=none;fillColor=none;fontColor=#E4FDE1;" vertex="1" parent="6HWjotPKbTv_qJim1hyO-3">
          <mxGeometry y="30" width="370" height="30" as="geometry" />
        </mxCell>
        <mxCell id="6HWjotPKbTv_qJim1hyO-5" value="Protocols\&lt;font color=&quot;#fff554&quot;&gt;VoltageRegulator&lt;/font&gt;&lt;span style=&quot;font-family: ui-monospace, SFMono-Regular, &amp;quot;SF Mono&amp;quot;, Menlo, Consolas, &amp;quot;Liberation Mono&amp;quot;, monospace; font-weight: 400; text-align: start;&quot;&gt;&lt;font style=&quot;&quot; color=&quot;#ffff33&quot;&gt;.cs&lt;/font&gt;&lt;/span&gt;" style="swimlane;whiteSpace=wrap;html=1;labelBackgroundColor=none;strokeColor=#028090;strokeWidth=2;fontSize=12;fontColor=#E4FDE1;fillColor=#F45B69;" vertex="1" parent="1">
          <mxGeometry x="-1640" y="1350" width="420" height="250" as="geometry">
            <mxRectangle x="-480" y="450" width="270" height="30" as="alternateBounds" />
          </mxGeometry>
        </mxCell>
        <mxCell id="6HWjotPKbTv_qJim1hyO-6" value="&lt;div style=&quot;&quot;&gt;Это класс, который по сути представляет из себя конкретный&amp;nbsp;&lt;/div&gt;&lt;div style=&quot;&quot;&gt;реле регулятор (ЛИН или БСС), с котором мы сейчас работаем.&amp;nbsp;&lt;/div&gt;&lt;div style=&quot;&quot;&gt;Как внешний, так&amp;nbsp;&amp;nbsp;&lt;span style=&quot;background-color: initial;&quot;&gt;и внутренний (в генераторе). Сюда записываются&amp;nbsp;&lt;/span&gt;&lt;/div&gt;&lt;div style=&quot;&quot;&gt;&lt;span style=&quot;background-color: initial;&quot;&gt;вычитанные из&amp;nbsp;&lt;/span&gt;&lt;span style=&quot;background-color: initial;&quot;&gt;регулятора параметры - ошибки, айдишник, версия,&amp;nbsp;&lt;/span&gt;&lt;/div&gt;&lt;div style=&quot;&quot;&gt;&lt;span style=&quot;background-color: initial;&quot;&gt;протокол и т.д.&lt;/span&gt;&lt;/div&gt;&lt;div style=&quot;&quot;&gt;&lt;span style=&quot;background-color: initial;&quot;&gt;&lt;br&gt;&lt;/span&gt;&lt;/div&gt;&lt;div style=&quot;&quot;&gt;&lt;span style=&quot;background-color: initial;&quot;&gt;Ошибки обрабатываются здесь в трехбуквенный формат, который&lt;/span&gt;&lt;/div&gt;&lt;div style=&quot;&quot;&gt;&lt;span style=&quot;background-color: initial;&quot;&gt;видно потом на экране.&lt;/span&gt;&lt;/div&gt;&lt;div style=&quot;&quot;&gt;&lt;span style=&quot;background-color: initial;&quot;&gt;&lt;br&gt;&lt;/span&gt;&lt;/div&gt;&lt;div style=&quot;&quot;&gt;&lt;span style=&quot;background-color: initial;&quot;&gt;Так же в переменные этого класса можно записывать параметры&amp;nbsp;&lt;/span&gt;&lt;/div&gt;&lt;div style=&quot;&quot;&gt;&lt;span style=&quot;background-color: initial;&quot;&gt;регулятора, типа blind zone, cut off speed, напряжение, которое хотим&lt;/span&gt;&lt;/div&gt;&lt;div style=&quot;&quot;&gt;&lt;span style=&quot;background-color: initial;&quot;&gt;установить.&lt;/span&gt;&lt;/div&gt;" style="text;html=1;align=left;verticalAlign=middle;resizable=0;points=[];autosize=1;strokeColor=none;fillColor=none;fontColor=#E4FDE1;" vertex="1" parent="6HWjotPKbTv_qJim1hyO-5">
          <mxGeometry x="5" y="25" width="410" height="190" as="geometry" />
        </mxCell>
        <mxCell id="Su7gFYKGGOcVreOfcngS-1" value="&lt;h1&gt;Процедура работы с линией GC&lt;/h1&gt;&lt;p style=&quot;font-size: 14px;&quot;&gt;В классе LGBControl задаются тип протокола, с которым мы будем работать, что бы сообщить плате, что за данные посылать вообще - для этого есть классы с постфиксом &quot;Request&quot; (можно найти в конструкторе LBGControl).&amp;nbsp;&lt;/p&gt;&lt;span style=&quot;font-size: 14px;&quot;&gt;Так же задаем частоту, на которой надо посылать данные, максимальную и минимальную скважность, инвертирована ли функция напряжения.&lt;/span&gt;&lt;p style=&quot;font-size: 14px;&quot;&gt;При входе в какой либо режим (автомат\ручной), где есть работа с СОМ, вызывается функция StartFind, которая получает список скоростей и айдишников, на которые хотим получить от регулятора ответ, запускаем поток, в котором по очереди шлём всё это при помощи функции Detect_COM_Bus. Эта функция, по уникальному набору айдишников, на которой ответил регулятор, определяет его тип. Если мы обнаружили тип LINа, или поняли, что это BSS&lt;span style=&quot;background-color: initial;&quot;&gt;, то запускается функция Work_LIN_Bus или Worl_BSS_bus соответсвенно (обе находятся соответственно в классах LINRequest и BSSRequest).&lt;/span&gt;&lt;/p&gt;&lt;p style=&quot;font-size: 14px;&quot;&gt;&lt;span style=&quot;background-color: initial;&quot;&gt;Эти две функции делают одну и ту же вещь: посылают пакеты в соответствии с типом протокола, по ним определают версию CRC (для лина), читают данные с регулятора, и посылают пакет с записью параметра в регулятор, в частности напряжение.&amp;nbsp;&lt;/span&gt;&lt;/p&gt;&lt;p style=&quot;font-size: 14px;&quot;&gt;&lt;span style=&quot;background-color: initial;&quot;&gt;Если данные перестают приходить, то функция прекращает работу и возвращается в предыдущий поток, где опять ищет регулятор.&lt;/span&gt;&lt;/p&gt;&lt;p style=&quot;font-size: 14px;&quot;&gt;&lt;span style=&quot;background-color: initial;&quot;&gt;Касаемо всего остального (PD, SIG, RLO etc...) - данные считаются обычными линейными функциями.&amp;nbsp;&lt;/span&gt;&lt;/p&gt;&lt;p style=&quot;font-size: 14px;&quot;&gt;&lt;br&gt;&lt;/p&gt;&lt;span style=&quot;font-size: 14px;&quot;&gt;&lt;br&gt;&lt;/span&gt;" style="text;html=1;strokeColor=none;fillColor=none;spacing=5;spacingTop=-20;whiteSpace=wrap;overflow=hidden;rounded=0;fontColor=#fff554;" vertex="1" parent="1">
          <mxGeometry x="-1640" y="1620" width="800" height="380" as="geometry" />
        </mxCell>
      </root>
    </mxGraphModel>
  </diagram>
</mxfile>
